<svg width="5" height="10" viewBox="0 0 5 10" fill="none" xmlns="http://www.w3.org/2000/svg">
<path id="Vector" d="M4.00922 0.197889L0.126728 4.63061C0.0806452 4.68338 0.0480799 4.74055 0.0290323 4.80211C0.00967742 4.86368 0 4.92964 0 5C0 5.07036 0.00967742 5.13632 0.0290323 5.19789C0.0480799 5.25945 0.0806452 5.31662 0.126728 5.36939L4.00922 9.8153C4.11674 9.93843 4.25115 10 4.41244 10C4.57373 10 4.71198 9.93404 4.82719 9.80211C4.9424 9.67018 5 9.51627 5 9.34037C5 9.16447 4.9424 9.01055 4.82719 8.87863L1.44009 5L4.82719 1.12137C4.93472 0.99824 4.98848 0.846614 4.98848 0.666491C4.98848 0.486016 4.93088 0.329815 4.81567 0.197889C4.70046 0.0659628 4.56605 0 4.41244 0C4.25883 0 4.12442 0.0659628 4.00922 0.197889Z" fill="#4E88C4"/>
</svg>
