<svg width="36" height="36" viewBox="0 0 36 36" fill="none" xmlns="http://www.w3.org/2000/svg">
<path d="M11 21C12.6569 21 14 19.6569 14 18C14 16.3431 12.6569 15 11 15C9.34315 15 8 16.3431 8 18C8 19.6569 9.34315 21 11 21Z" fill="white"/>
<path d="M22 21C23.6569 21 25 19.6569 25 18C25 16.3431 23.6569 15 22 15C20.3431 15 19 16.3431 19 18C19 19.6569 20.3431 21 22 21Z" fill="white"/>
<path d="M33 21C34.6569 21 36 19.6569 36 18C36 16.3431 34.6569 15 33 15C31.3431 15 30 16.3431 30 18C30 19.6569 31.3431 21 33 21Z" fill="white"/>
</svg>
