<svg width="20" height="20" viewBox="0 0 20 20" fill="none" xmlns="http://www.w3.org/2000/svg">
<path d="M17.5 14.125C17.5 15.989 15.989 17.5 14.125 17.5C12.261 17.5 10.75 15.989 10.75 14.125C10.75 12.261 12.261 10.75 14.125 10.75C15.989 10.75 17.5 12.261 17.5 14.125Z" stroke-width="1.5"/>
<path d="M19 19L17 17" stroke-width="1.5" stroke-linecap="round"/>
<path d="M5 7H4"  stroke-width="1.5" stroke-linecap="round"/>
<path d="M16 4L2 4"  stroke-width="1.5" stroke-linecap="round"/>
<path d="M5 10H4"  stroke-width="1.5" stroke-linecap="round"/>
<path d="M9 10H8"  stroke-width="1.5" stroke-linecap="round"/>
<path d="M14 7H8"  stroke-width="1.5" stroke-linecap="round"/>
<path d="M17 8V4.2C17 3.07989 17 2.51984 16.782 2.09202C16.5903 1.71569 16.2843 1.40973 15.908 1.21799C15.4802 1 14.9201 1 13.8 1H4.2C3.07989 1 2.51984 1 2.09202 1.21799C1.71569 1.40973 1.40973 1.71569 1.21799 2.09202C1 2.51984 1 3.07989 1 4.2V13.8C1 14.9201 1 15.4802 1.21799 15.908C1.40973 16.2843 1.71569 16.5903 2.09202 16.782C2.51984 17 3.0799 17 4.2 17H8" stroke-width="1.5"/>
</svg>
