<svg width="50" height="50" viewBox="0 0 50 50" fill="none" xmlns="http://www.w3.org/2000/svg">
<g opacity="0.8">
<path d="M25.1884 27.0244C21.0026 27.0323 16.9906 28.6996 14.0322 31.6608C11.0737 34.6221 9.41017 38.6356 9.40625 42.8214C9.40625 43.0184 9.48449 43.2073 9.62375 43.3465C9.76301 43.4858 9.95188 43.564 10.1488 43.564H40.2478C40.4448 43.564 40.6337 43.4858 40.7729 43.3465C40.9122 43.2073 40.9904 43.0184 40.9904 42.8214C40.9865 38.6322 39.3202 34.6157 36.3575 31.6539C33.3947 28.692 29.3777 27.027 25.1884 27.0244ZM10.8914 42.0789C11.0721 38.4107 12.6565 34.9526 15.3165 32.4204C17.9765 29.8882 21.5084 28.4758 25.181 28.4758C28.8536 28.4758 32.3855 29.8882 35.0455 32.4204C37.7055 34.9526 39.2899 38.4107 39.4706 42.0789H10.8914Z" fill="white"/>
<path d="M25.0043 8C23.4217 7.99914 21.8744 8.46771 20.5581 9.34644C19.2419 10.2252 18.2158 11.4745 17.6098 12.9365C17.0038 14.3985 16.845 16.0074 17.1535 17.5597C17.4621 19.1119 18.2241 20.5378 19.3431 21.6569C20.4622 22.7759 21.8881 23.5379 23.4403 23.8465C24.9926 24.155 26.6015 23.9962 28.0635 23.3902C29.5255 22.7842 30.7748 21.7581 31.6536 20.4419C32.5323 19.1256 33.0009 17.5783 33 15.9957C32.9977 13.8758 32.1546 11.8434 30.6556 10.3444C29.1566 8.84543 27.1242 8.0023 25.0043 8ZM25.0043 22.6941C23.6793 22.695 22.3838 22.3029 21.2817 21.5674C20.1796 20.8318 19.3203 19.786 18.8127 18.5621C18.305 17.3382 18.1717 15.9912 18.4297 14.6915C18.6877 13.3919 19.3253 12.1979 20.2619 11.2607C21.1986 10.3234 22.3921 9.68502 23.6916 9.42621C24.9911 9.1674 26.3382 9.29979 27.5624 9.80666C28.7866 10.3135 29.8331 11.1721 30.5693 12.2737C31.3055 13.3754 31.6985 14.6706 31.6985 15.9957C31.6973 17.7711 30.9918 19.4736 29.7368 20.7294C28.4818 21.9852 26.7798 22.6918 25.0043 22.6941Z" fill="white"/>
<path d="M13.7028 21.2871C13.8997 21.2871 14.0886 21.2089 14.2279 21.0696C14.3671 20.9303 14.4454 20.7415 14.4454 20.5445V12.3762C14.4704 12.3422 14.492 12.3057 14.5097 12.2673C15.3314 10.1849 16.7587 8.39665 18.6071 7.13372C20.4555 5.87079 22.6402 5.19116 24.8789 5.18263C27.1176 5.1741 29.3074 5.83707 31.1654 7.08588C33.0234 8.33469 34.4642 10.112 35.3018 12.1881V20.5544C34.7526 21.9381 33.9311 23.1973 32.8859 24.2574C32.7469 24.3966 32.6688 24.5854 32.6688 24.7821C32.6688 24.9789 32.7469 25.1677 32.8859 25.3069C33.0179 25.4382 33.1949 25.5143 33.381 25.5198C33.4793 25.5201 33.5766 25.501 33.6675 25.4636C33.7584 25.4262 33.8411 25.3713 33.9107 25.3019C35.0686 24.1517 35.9932 22.7884 36.6335 21.2871H36.9899C38.3029 21.2871 39.562 20.7655 40.4904 19.8371C41.4188 18.9087 41.9404 17.6495 41.9404 16.3366C41.9404 15.0236 41.4188 13.7645 40.4904 12.8361C39.562 11.9077 38.3029 11.3861 36.9899 11.3861H36.584C35.6044 9.11344 33.9806 7.17746 31.9131 5.81725C29.8457 4.45704 27.4251 3.73218 24.9503 3.73218C22.4755 3.73218 20.0549 4.45704 17.9875 5.81725C15.92 7.17746 14.2962 9.11344 13.3166 11.3861H12.8216C11.5086 11.3861 10.2495 11.9077 9.32106 12.8361C8.39266 13.7645 7.87109 15.0236 7.87109 16.3366C7.87109 17.6495 8.39266 18.9087 9.32106 19.8371C10.2495 20.7655 11.5086 21.2871 12.8216 21.2871H13.7028ZM36.7919 12.8713H36.9701C37.8892 12.8713 38.7706 13.2363 39.4205 13.8862C40.0703 14.5361 40.4354 15.4175 40.4354 16.3366C40.4354 17.2557 40.0703 18.1371 39.4205 18.787C38.7706 19.4368 37.8892 19.8019 36.9701 19.8019H36.7919V12.8713ZM9.31664 16.3366C9.31664 15.4175 9.68174 14.5361 10.3316 13.8862C10.9815 13.2363 11.8629 12.8713 12.782 12.8713H12.9602V19.8019H12.782C11.8629 19.8019 10.9815 19.4368 10.3316 18.787C9.68174 18.1371 9.31664 17.2557 9.31664 16.3366Z" fill="white"/>
</g>
</svg>
