<svg width="50" height="50" viewBox="0 0 50 50" fill="none" xmlns="http://www.w3.org/2000/svg">
<g opacity="0.8">
<path d="M29.167 36.4584V11.4584C29.167 10.8831 28.7006 10.4167 28.1253 10.4167H5.20866C4.63336 10.4167 4.16699 10.8831 4.16699 11.4584V36.4584C4.16699 37.0337 4.63336 37.5001 5.20866 37.5001H8.33366M29.167 36.4584C29.167 37.0337 28.7006 37.5001 28.1253 37.5001H16.667M29.167 36.4584V17.7084C29.167 17.1331 29.6334 16.6667 30.2087 16.6667H37.0689C37.3451 16.6667 37.6101 16.7765 37.8054 16.9718L45.5286 24.695C45.7239 24.8903 45.8337 25.1553 45.8337 25.4316V36.4584C45.8337 37.0337 45.3673 37.5001 44.792 37.5001H41.667M29.167 36.4584C29.167 37.0337 29.6334 37.5001 30.2087 37.5001H33.3337M8.33366 37.5001C8.33366 39.8013 10.1991 41.6667 12.5003 41.6667C14.8015 41.6667 16.667 39.8013 16.667 37.5001M8.33366 37.5001C8.33366 35.1989 10.1991 33.3334 12.5003 33.3334C14.8015 33.3334 16.667 35.1989 16.667 37.5001M33.3337 37.5001C33.3337 39.8013 35.1991 41.6667 37.5003 41.6667C39.8015 41.6667 41.667 39.8013 41.667 37.5001M33.3337 37.5001C33.3337 35.1989 35.1991 33.3334 37.5003 33.3334C39.8015 33.3334 41.667 35.1989 41.667 37.5001" stroke="white" stroke-width="1.5"/>
</g>
</svg>
