<svg width="50" height="50" viewBox="0 0 50 50" fill="none" xmlns="http://www.w3.org/2000/svg">
<g opacity="0.8">
<path d="M10.4169 22.9161V34.7519C10.4169 36.4187 11.4102 37.9251 12.9422 38.5817L23.3589 43.046C24.407 43.4952 25.5934 43.4952 26.6415 43.046L37.0582 38.5817C38.5902 37.9251 39.5835 36.4187 39.5835 34.7519V22.9161M45.8335 18.7494V29.1661M3.94691 16.776L23.1368 7.1811C24.3098 6.59458 25.6905 6.59458 26.8636 7.1811L46.0535 16.776C46.8212 17.1599 46.8212 18.2556 46.0535 18.6394L26.8636 28.2344C25.6905 28.8209 24.3098 28.8209 23.1368 28.2344L3.94691 18.6394C3.17915 18.2556 3.17915 17.1599 3.94691 16.776Z" stroke="white" stroke-width="1.5" stroke-linecap="round"/>
</g>
</svg>
