<svg width="50" height="50" viewBox="0 0 50 50" fill="none" xmlns="http://www.w3.org/2000/svg">
<g opacity="0.8">
<path d="M20.377 8.10362C21.552 7.10362 22.1395 6.60362 22.752 6.30987C23.4536 5.97441 24.2213 5.80029 24.9989 5.80029C25.7765 5.80029 26.5443 5.97441 27.2458 6.30987C27.8604 6.60154 28.4479 7.10154 29.6208 8.10362C30.0895 8.50362 30.3229 8.70154 30.5729 8.86821C31.1454 9.2519 31.7884 9.51816 32.4645 9.65154C32.7583 9.70987 33.0645 9.73487 33.677 9.78487C35.2166 9.90571 35.9854 9.96821 36.627 10.1953C37.3599 10.4539 38.0257 10.8733 38.5754 11.4227C39.1252 11.9721 39.545 12.6376 39.8041 13.3703C40.0312 14.014 40.0916 14.7828 40.2145 16.3203C40.2624 16.9328 40.2874 17.239 40.3458 17.5349C40.4791 18.2099 40.7458 18.8536 41.1291 19.4245C41.2958 19.6745 41.4958 19.9078 41.8937 20.3765C42.8937 21.5515 43.3958 22.139 43.6895 22.7515C44.025 23.4531 44.1991 24.2208 44.1991 24.9984C44.1991 25.776 44.025 26.5438 43.6895 27.2453C43.3979 27.8578 42.8958 28.4453 41.8937 29.6203C41.6213 29.9232 41.366 30.241 41.1291 30.5724C40.7455 31.1442 40.4793 31.7865 40.3458 32.462C40.2874 32.7578 40.2624 33.064 40.2145 33.6765C40.0916 35.214 40.0312 35.9849 39.8041 36.6265C39.545 37.3593 39.1252 38.0247 38.5754 38.5741C38.0257 39.1235 37.3599 39.5429 36.627 39.8015C35.9854 40.0307 35.2166 40.0911 33.677 40.212C33.0645 40.262 32.7604 40.287 32.4645 40.3453C31.7884 40.4787 31.1454 40.7449 30.5729 41.1286C30.2422 41.3656 29.9251 41.6209 29.6229 41.8932C28.4479 42.8932 27.8604 43.3932 27.2479 43.687C26.5463 44.0224 25.7786 44.1965 25.001 44.1965C24.2234 44.1965 23.4556 44.0224 22.7541 43.687C22.1395 43.3953 21.552 42.8953 20.3791 41.8932C20.0762 41.6209 19.7583 41.3656 19.427 41.1286C18.8545 40.7449 18.2115 40.4787 17.5354 40.3453C17.134 40.2784 16.7292 40.2339 16.3229 40.212C14.7833 40.0911 14.0145 40.0286 13.3729 39.8015C12.64 39.5429 11.9742 39.1235 11.4245 38.5741C10.8747 38.0247 10.4549 37.3593 10.1958 36.6265C9.96869 35.9849 9.90828 35.214 9.78536 33.6765C9.76455 33.2695 9.72073 32.864 9.65411 32.462C9.52047 31.7865 9.25422 31.1443 8.87078 30.5724C8.70411 30.3224 8.50411 30.089 8.10619 29.6203C7.10619 28.4453 6.60411 27.8578 6.31036 27.2453C5.9749 26.5438 5.80078 25.776 5.80078 24.9984C5.80078 24.2208 5.9749 23.4531 6.31036 22.7515C6.60411 22.139 7.10411 21.5515 8.10619 20.3765C8.50411 19.9078 8.70411 19.6745 8.87078 19.4245C9.25422 18.8526 9.52047 18.2103 9.65411 17.5349C9.71244 17.239 9.73744 16.9328 9.78536 16.3203C9.90828 14.7828 9.96869 14.014 10.1958 13.3703C10.4551 12.6373 10.8753 11.9717 11.4254 11.4223C11.9755 10.8729 12.6417 10.4537 13.3749 10.1953C14.0166 9.96821 14.7854 9.90571 16.3249 9.78487C16.9374 9.73487 17.2416 9.70987 17.5374 9.65154C18.2136 9.51816 18.8566 9.2519 19.4291 8.86821C19.6791 8.70154 19.9104 8.50362 20.377 8.10362Z" stroke="white" stroke-width="1.5"/>
<path d="M18.75 31.25L31.25 18.75" stroke="white" stroke-width="1.5" stroke-linecap="round"/>
<path d="M32.2904 30.208C32.2904 30.7605 32.0709 31.2904 31.6802 31.6811C31.2895 32.0718 30.7596 32.2913 30.207 32.2913C29.6545 32.2913 29.1246 32.0718 28.7339 31.6811C28.3432 31.2904 28.1237 30.7605 28.1237 30.208C28.1237 29.6555 28.3432 29.1256 28.7339 28.7349C29.1246 28.3442 29.6545 28.1247 30.207 28.1247C30.7596 28.1247 31.2895 28.3442 31.6802 28.7349C32.0709 29.1256 32.2904 29.6555 32.2904 30.208ZM21.8737 19.7913C21.8737 20.3439 21.6542 20.8738 21.2635 21.2645C20.8728 21.6552 20.3429 21.8747 19.7904 21.8747C19.2378 21.8747 18.7079 21.6552 18.3172 21.2645C17.9265 20.8738 17.707 20.3439 17.707 19.7913C17.707 19.2388 17.9265 18.7089 18.3172 18.3182C18.7079 17.9275 19.2378 17.708 19.7904 17.708C20.3429 17.708 20.8728 17.9275 21.2635 18.3182C21.6542 18.7089 21.8737 19.2388 21.8737 19.7913Z" fill="white"/>
</g>
</svg>
