<svg width="20" height="20" viewBox="0 0 20 20" fill="none" xmlns="http://www.w3.org/2000/svg">
<path d="M10.3173 18.7504C6.95582 18.7504 2 16.1666 2 10.4575C2 6.08622 4.75623 2.93913 7.77728 1.78538C8.55011 1.44413 12.8844 0.127883 15.3542 1.99663C14.6192 1.76372 14.0247 1.62288 13.3978 1.50372C12.8142 1.38997 12.2035 1.28705 11.2793 1.55788C8.66901 2.33247 7.45302 4.67247 7.48545 7.85205C7.48545 12.6079 11.0091 15.5058 14.6192 15.5058C16.0676 15.5058 17.1917 15.2133 17.9754 14.6933C16.5972 17.4016 13.8356 18.7504 10.3173 18.7504Z"/>
<path d="M16.7174 4.39025C16.7174 6.129 15.3123 7.53733 13.5774 7.53733C11.8426 7.53733 10.4375 6.129 10.4375 4.39025C10.4375 2.6515 11.8426 1.24316 13.5774 1.24316C15.3123 1.24316 16.7174 2.6515 16.7174 4.39025Z" fill="#FF671F"/>
</svg>
