<svg width="24" height="24" viewBox="0 0 24 24" fill="none" xmlns="http://www.w3.org/2000/svg">
<path d="M12.0765 3H12.21C13.443 3.00459 19.6905 3.05053 21.375 3.51297C21.8842 3.6541 22.3483 3.9292 22.7207 4.31076C23.0932 4.69233 23.361 5.167 23.4975 5.68734C23.649 6.26922 23.7555 7.03944 23.8275 7.83416L23.8425 7.99341L23.8755 8.39153L23.8875 8.55078C23.985 9.95034 23.997 11.2611 23.9985 11.5474V11.6623C23.997 11.9593 23.9835 13.3589 23.8755 14.8167L23.8635 14.9774L23.85 15.1367C23.775 16.0126 23.664 16.8823 23.4975 17.5224C23.3615 18.0429 23.0938 18.5178 22.7212 18.8995C22.3487 19.2811 21.8844 19.556 21.375 19.6968C19.635 20.1745 13.0215 20.2082 12.105 20.2097H11.892C11.4285 20.2097 9.5115 20.2005 7.5015 20.1301L7.2465 20.1209L7.116 20.1148L6.8595 20.1041L6.603 20.0933C4.938 20.0183 3.3525 19.8973 2.622 19.6952C2.11273 19.5546 1.6486 19.2799 1.27609 18.8986C0.903575 18.5172 0.63577 18.0426 0.4995 17.5224C0.333 16.8838 0.222 16.0126 0.147 15.1367L0.135 14.9759L0.123 14.8167C0.0489714 13.7791 0.0079498 12.7393 0 11.699L0 11.5107C0.003 11.1815 0.015 10.0437 0.096 8.78812L0.1065 8.63041L0.111 8.55078L0.123 8.39153L0.156 7.99341L0.171 7.83416C0.243 7.03944 0.3495 6.26769 0.501 5.68734C0.63704 5.16679 0.904743 4.69189 1.27727 4.31026C1.6498 3.92863 2.11405 3.65368 2.6235 3.51297C3.354 3.31391 4.9395 3.19141 6.6045 3.11484L6.8595 3.10412L7.1175 3.09494L7.2465 3.09034L7.503 3.07963C8.93056 3.03273 10.3587 3.0067 11.787 3.00153H12.0765V3ZM9.6 7.91531V15.2929L15.8355 11.6056L9.6 7.91531Z" fill="white"/>
</svg>
