<svg width="21" height="21" viewBox="0 0 21 21" fill="none" xmlns="http://www.w3.org/2000/svg">
<g id="Group 45141">
<circle id="Ellipse 199" opacity="0.3" cx="6.61519" cy="15.4917" r="1.5" transform="rotate(-33.6777 6.61519 15.4917)" fill="#4E88C4"/>
<circle id="Ellipse 200" opacity="0.3" cx="9.94332" cy="13.2739" r="1.5" transform="rotate(-33.6777 9.94332 13.2739)" fill="#4E88C4"/>
<circle id="Ellipse 201" opacity="0.3" cx="13.2714" cy="11.0561" r="1.5" transform="rotate(-33.6777 13.2714 11.0561)" fill="#4E88C4"/>
<circle id="Ellipse 202" opacity="0.3" cx="16.5996" cy="8.83737" r="1.5" transform="rotate(-33.6777 16.5996 8.83737)" fill="#4E88C4"/>
<circle id="Ellipse 199_2" opacity="0.3" cx="2.17769" cy="8.83444" r="1.5" transform="rotate(-33.6777 2.17769 8.83444)" fill="#4E88C4"/>
<circle id="Ellipse 200_2" opacity="0.3" cx="5.50582" cy="6.61667" r="1.5" transform="rotate(-33.6777 5.50582 6.61667)" fill="#4E88C4"/>
<circle id="Ellipse 201_2" opacity="0.3" cx="8.83394" cy="4.39792" r="1.5" transform="rotate(-33.6777 8.83394 4.39792)" fill="#4E88C4"/>
<circle id="Ellipse 202_2" opacity="0.3" cx="12.166" cy="2.18015" r="1.5" transform="rotate(-33.6777 12.166 2.18015)" fill="#4E88C4"/>
<circle id="Ellipse 199_3" opacity="0.3" cx="8.83394" cy="18.8208" r="1.5" transform="rotate(-33.6777 8.83394 18.8208)" fill="#4E88C4"/>
<circle id="Ellipse 200_3" opacity="0.3" cx="12.1621" cy="16.602" r="1.5" transform="rotate(-33.6777 12.1621 16.602)" fill="#4E88C4"/>
<circle id="Ellipse 201_3" opacity="0.3" cx="15.4902" cy="14.3842" r="1.5" transform="rotate(-33.6777 15.4902 14.3842)" fill="#4E88C4"/>
<circle id="Ellipse 202_3" opacity="0.3" cx="18.8183" cy="12.1665" r="1.5" transform="rotate(-33.6777 18.8183 12.1665)" fill="#4E88C4"/>
<circle id="Ellipse 199_4" opacity="0.3" cx="4.39644" cy="12.1635" r="1.5" transform="rotate(-33.6777 4.39644 12.1635)" fill="#4E88C4"/>
<circle id="Ellipse 200_4" opacity="0.3" cx="7.72457" cy="9.9448" r="1.5" transform="rotate(-33.6777 7.72457 9.9448)" fill="#4E88C4"/>
<circle id="Ellipse 201_4" opacity="0.3" cx="11.0527" cy="7.72702" r="1.5" transform="rotate(-33.6777 11.0527 7.72702)" fill="#4E88C4"/>
<circle id="Ellipse 202_4" opacity="0.3" cx="14.3808" cy="5.50925" r="1.5" transform="rotate(-33.6777 14.3808 5.50925)" fill="#4E88C4"/>
</g>
</svg>
