<svg width="168" height="166" viewBox="0 0 168 166" fill="none" xmlns="http://www.w3.org/2000/svg">
<path opacity="0.1" d="M167 83C167 128.276 129.851 165 84 165C38.149 165 1 128.276 1 83C1 37.7239 38.149 1 84 1C129.851 1 167 37.7239 167 83Z" fill="white" stroke="#0057B8" stroke-width="2"/>
<path opacity="0.2" d="M100 40C101.105 40 102 39.1046 102 38C102 36.8954 101.105 36 100 36C98.8955 36 98 36.8954 98 38C98 39.1046 98.8955 40 100 40Z" fill="#6287C1"/>
<path opacity="0.2" d="M78 40C79.1046 40 80 39.1046 80 38C80 36.8954 79.1046 36 78 36C76.8955 36 76 36.8954 76 38C76 39.1046 76.8955 40 78 40Z" fill="#6287C1"/>
<path opacity="0.2" d="M150 85C151.105 85 152 84.1046 152 83C152 81.8954 151.105 81 150 81C148.895 81 148 81.8954 148 83C148 84.1046 148.895 85 150 85Z" fill="#6287C1"/>
</svg>
