<svg width="55" height="55" viewBox="0 0 55 55" fill="none" xmlns="http://www.w3.org/2000/svg">
<g id="Group 45140">
<path id="Vector" d="M19.9614 7.55848C21.3963 8.3869 23.231 7.89528 24.0594 6.4604C24.8878 5.02552 24.3963 3.19075 22.9614 2.36233C21.5265 1.53391 19.6917 2.02552 18.8633 3.4604C18.0348 4.89528 18.5265 6.73006 19.9614 7.55848Z" fill="#FF671F"/>
<path id="Vector_2" d="M29.4887 13.0584C30.9235 13.8869 32.7583 13.3953 33.5868 11.9604C34.4152 10.5255 33.9235 8.6907 32.4887 7.86228C31.0538 7.03386 29.219 7.52552 28.3906 8.9604C27.5622 10.3953 28.0538 12.23 29.4887 13.0584Z" fill="#FF671F"/>
<path id="Vector_3" d="M39.0121 18.5584C40.447 19.3869 42.2818 18.8953 43.1102 17.4604C43.9386 16.0255 43.447 14.1907 42.0121 13.3623C40.5772 12.5339 38.7425 13.0255 37.9141 14.4604C37.0856 15.8953 37.5772 17.73 39.0121 18.5584Z" fill="#FF671F"/>
<path id="Vector_4" d="M48.5395 24.0585C49.9744 24.8869 51.8091 24.3952 52.6376 22.9604C53.466 21.5255 52.9744 19.6907 51.5395 18.8623C50.1046 18.0339 48.2698 18.5255 47.4414 19.9604C46.613 21.3952 47.1046 23.23 48.5395 24.0585Z" fill="#FF671F"/>
<path id="Vector_5" d="M14.4614 17.0848C15.8962 17.9133 17.731 17.4216 18.5594 15.9867C19.3879 14.5519 18.8962 12.7171 17.4614 11.8887C16.0265 11.0602 14.1917 11.5519 13.3633 12.9867C12.5349 14.4216 13.0265 16.2564 14.4614 17.0848Z" fill="#FF671F"/>
<path id="Vector_6" d="M23.9887 22.5848C25.4236 23.4133 27.2584 22.9216 28.0868 21.4867C28.9152 20.0519 28.4236 18.2171 26.9887 17.3887C25.5539 16.5603 23.7191 17.0519 22.8906 18.4867C22.0622 19.9216 22.5539 21.7564 23.9887 22.5848Z" fill="#FF671F"/>
<path id="Vector_7" d="M33.5122 28.0848C34.947 28.9133 36.7818 28.4216 37.6102 26.9868C38.4386 25.5519 37.947 23.7171 36.5122 22.8887C35.0773 22.0603 33.2425 22.5519 32.4141 23.9868C31.5856 25.4216 32.0773 27.2564 33.5122 28.0848Z" fill="#FF671F"/>
<path id="Vector_8" d="M43.0394 33.5848C44.4743 34.4132 46.3091 33.9216 47.1376 32.4867C47.966 31.0519 47.4743 29.2171 46.0394 28.3886C44.6046 27.5602 42.7698 28.0519 41.9414 29.4867C41.113 30.9216 41.6046 32.7564 43.0394 33.5848Z" fill="#FF671F"/>
<path id="Vector_9" d="M8.96136 26.6112C10.3962 27.4396 12.231 26.948 13.0594 25.5131C13.8878 24.0783 13.3962 22.2435 11.9614 21.415C10.5265 20.5866 8.6917 21.0783 7.86327 22.5131C7.03484 23.948 7.52647 25.7828 8.96136 26.6112Z" fill="#FF671F"/>
<path id="Vector_10" d="M18.4887 32.1112C19.9236 32.9396 21.7583 32.448 22.5868 31.0131C23.4152 29.5783 22.9236 27.7435 21.4887 26.915C20.0538 26.0866 18.219 26.5783 17.3906 28.0131C16.5622 29.448 17.0538 31.2828 18.4887 32.1112Z" fill="#FF671F"/>
<path id="Vector_11" d="M28.0121 37.6112C29.447 38.4396 31.2818 37.948 32.1102 36.5131C32.9387 35.0782 32.447 33.2435 31.0121 32.415C29.5773 31.5866 27.7425 32.0782 26.9141 33.5131C26.0856 34.948 26.5773 36.7828 28.0121 37.6112Z" fill="#FF671F"/>
<path id="Vector_12" d="M37.5395 43.1112C38.9744 43.9396 40.8091 43.448 41.6375 42.0131C42.466 40.5783 41.9744 38.7435 40.5395 37.9151C39.1047 37.0866 37.2698 37.5783 36.4414 39.0131C35.613 40.448 36.1047 42.2828 37.5395 43.1112Z" fill="#FF671F"/>
<path id="Vector_13" d="M3.46136 36.1376C4.89624 36.966 6.73102 36.4743 7.55944 35.0395C8.38787 33.6046 7.89624 31.7698 6.46136 30.9414C5.02647 30.113 3.19172 30.6046 2.36329 32.0395C1.53487 33.4743 2.02647 35.3091 3.46136 36.1376Z" fill="#FF671F"/>
<path id="Vector_14" d="M12.9887 41.6376C14.4236 42.466 16.2583 41.9744 17.0868 40.5395C17.9152 39.1046 17.4236 37.2698 15.9887 36.4414C14.5538 35.613 12.719 36.1046 11.8906 37.5395C11.0622 38.9744 11.5538 40.8091 12.9887 41.6376Z" fill="#FF671F"/>
<path id="Vector_15" d="M22.5121 47.1376C23.947 47.966 25.7818 47.4744 26.6102 46.0395C27.4386 44.6046 26.947 42.7698 25.5121 41.9414C24.0773 41.113 22.2425 41.6046 21.4141 43.0395C20.5856 44.4744 21.0773 46.3091 22.5121 47.1376Z" fill="#FF671F"/>
<path id="Vector_16" d="M32.0395 52.6376C33.4744 53.466 35.3091 52.9743 36.1376 51.5395C36.966 50.1046 36.4744 48.2698 35.0395 47.4414C33.6046 46.613 31.7698 47.1046 30.9414 48.5395C30.113 49.9743 30.6046 51.8091 32.0395 52.6376Z" fill="#FF671F"/>
</g>
</svg>
