<svg width="76" height="45" viewBox="0 0 76 45" fill="none" xmlns="http://www.w3.org/2000/svg">
<g id="Group 45138">
<path id="Vector" d="M26.0029 37.2053C25.883 34.5884 25.91 31.3509 27.8336 29.3099C29.4276 27.615 31.9445 27.2122 34.1558 26.9884C35.7139 26.8303 37.251 26.9198 38.8121 26.9228C40.3042 26.9228 42.0301 26.8482 43.2376 25.8575C43.9957 25.2369 44.4571 24.1298 44.1605 23.169C43.9208 22.3932 43.3065 21.8233 42.8031 21.2146C42.3237 20.6387 42.0061 20.0031 42.3297 19.2661C42.5784 18.6991 43.0339 18.2306 43.4803 17.8189C44.1455 17.2012 44.8586 16.685 45.7275 16.3866C47.3575 15.8286 49.1104 15.8943 50.8093 15.8286C51.4805 15.8047 52.1696 15.7689 52.8228 15.6018C53.0835 15.5332 53.2752 15.4855 53.5449 15.4795C53.8775 15.4735 54.2071 15.4616 54.5397 15.4467C55.3007 15.4108 56.0618 15.3452 56.8168 15.2318C57.4461 15.1363 58.1173 15.02 58.6806 14.7156C59.5405 14.2531 59.4836 13.2356 59.2109 12.4299C58.6086 10.6545 56.691 8.26439 58.6386 6.66203C59.2439 6.16371 60.0738 5.77582 60.8409 5.61469C61.581 5.45953 62.378 5.50428 63.1301 5.5013C63.993 5.49533 64.8649 5.49831 65.7219 5.38194C66.405 5.28943 67.0792 5.18798 67.7654 5.12234C69.1826 4.98806 70.6178 4.86573 72.0021 4.51363C73.0448 4.24806 74.3123 3.80047 74.8067 2.7561C75.0374 2.26972 75.0404 1.73858 74.9235 1.21938C74.8366 0.834453 74.2434 0.998583 74.3303 1.38351C74.5939 2.55917 73.755 3.26037 72.7392 3.6453C71.4358 4.13764 70.0096 4.28385 68.6343 4.42409C67.9391 4.49571 67.247 4.55241 66.5518 4.63297C65.7668 4.72249 65.0088 4.85677 64.2117 4.87765C63.3488 4.89854 62.4859 4.87467 61.6259 4.91943C60.8888 4.95822 60.2536 5.12233 59.5735 5.41774C58.4019 5.925 57.2933 6.77542 57.1704 8.12714C57.0745 9.18941 57.563 10.2278 58.0004 11.1648C58.2191 11.6362 58.4528 12.1017 58.6206 12.594C58.7435 12.9551 58.8663 13.3788 58.7435 13.7578C58.6027 14.1904 58.1412 14.3128 57.7397 14.4232C57.0206 14.6201 56.2715 14.7067 55.5315 14.7693C54.8513 14.826 54.1651 14.8588 53.482 14.8678C52.8857 14.8767 52.3164 15.1065 51.7171 15.1632C50.1021 15.3094 48.4722 15.202 46.8661 15.4735C45.1343 15.7659 43.6931 16.6074 42.5245 17.9114C41.8983 18.6096 41.3559 19.5227 41.6646 20.4865C42.111 21.874 44.1395 22.7811 43.5133 24.4372C42.9829 25.8366 41.3739 26.1828 40.0346 26.2753C38.3986 26.3916 36.7566 26.1738 35.1206 26.2932C32.7835 26.4633 30.1378 26.7408 28.1962 28.179C26.1647 29.6859 25.5384 32.2013 25.3946 34.6034C25.3437 35.4717 25.3527 36.34 25.3916 37.2083C25.4066 37.5962 26.0209 37.5992 26.0029 37.2053Z" fill="#0057B8" stroke="#0057B8"/>
<path id="Vector_2" d="M2.4922 43.4062C2.25235 40.7976 2.13068 37.5622 3.95859 35.4351C5.47315 33.6688 7.96891 33.1509 10.1676 32.8258C11.7168 32.5963 13.2563 32.6152 14.8159 32.5465C16.3065 32.478 18.0271 32.3243 19.1879 31.2792C19.9167 30.6244 20.3268 29.4974 19.9864 28.5512C19.7113 27.7872 19.0716 27.2461 18.5408 26.6611C18.0354 26.1078 17.689 25.4875 17.9784 24.7364C18.2008 24.1587 18.6343 23.6698 19.0613 23.2379C19.6975 22.5904 20.3861 22.042 21.2405 21.704C22.8431 21.0718 24.5971 21.0569 26.2912 20.9133C26.9606 20.8587 27.6474 20.7913 28.2922 20.5944C28.5495 20.5139 28.7388 20.4574 29.0079 20.439C29.3399 20.4178 29.6686 20.3907 30.0001 20.3606C30.7588 20.2899 31.516 20.1894 32.2651 20.0414C32.8892 19.9172 33.5544 19.7701 34.1031 19.4402C34.9409 18.9387 34.8373 17.9249 34.528 17.1326C33.8449 15.3867 31.8196 13.0871 33.6916 11.3971C34.2733 10.8715 35.0846 10.4459 35.8434 10.2497C36.5756 10.0608 37.3739 10.0689 38.125 10.0314C38.9868 9.98581 39.8579 9.94876 40.7086 9.79318C41.3868 9.66942 42.0556 9.53713 42.738 9.44005C44.1476 9.24087 45.5757 9.05278 46.9424 8.63751C47.9718 8.32436 49.2173 7.81906 49.6633 6.7531C49.8714 6.25665 49.85 5.72593 49.7095 5.21264C49.605 4.83211 49.0199 5.02328 49.1244 5.40381C49.4417 6.56613 48.6358 7.30512 47.6388 7.73626C46.3594 8.28792 44.9414 8.49944 43.574 8.70266C42.8828 8.80611 42.194 8.89452 41.5033 9.00691C40.7232 9.13236 39.9721 9.3013 39.1769 9.35874C38.3158 9.41922 37.4527 9.43499 36.5957 9.51917C35.8612 9.59176 35.2342 9.78485 34.5683 10.1112C33.4213 10.6717 32.3528 11.5721 32.2922 12.928C32.2451 13.9936 32.7807 15.0084 33.2607 15.9243C33.5008 16.3852 33.7557 16.8395 33.9459 17.3236C34.0852 17.6787 34.2273 18.0963 34.122 18.4805C34.0012 18.9192 33.5459 19.0626 33.1499 19.1913C32.4405 19.421 31.6962 19.5419 30.9598 19.6384C30.283 19.7263 29.599 19.7906 28.917 19.8309C28.3218 19.8672 27.7666 20.1227 27.1676 20.207C25.561 20.4272 23.9278 20.3947 22.3359 20.7396C20.6193 21.1112 19.2183 22.018 18.1108 23.3742C17.5173 24.1004 17.0174 25.0375 17.37 25.9861C17.8796 27.3516 19.9476 28.1647 19.3981 29.8477C18.9325 31.2701 17.3411 31.6897 16.0074 31.8436C14.3785 32.0349 12.7282 31.8927 11.0995 32.087C8.7726 32.3642 6.1424 32.7629 4.26886 34.2887C2.30868 35.8872 1.79856 38.4288 1.76515 40.8349C1.75412 41.7046 1.80297 42.5716 1.88174 43.4372C1.91451 43.824 2.52824 43.7988 2.4922 43.4062Z" fill="#0057B8" stroke="#0057B8"/>
</g>
</svg>
