<svg width="110" height="36" viewBox="0 0 110 36" fill="none" xmlns="http://www.w3.org/2000/svg">
<g clip-path="url(#clip0_1115_923)">
<path fill-rule="evenodd" clip-rule="evenodd" d="M66.3787 2.57899C66.2463 2.87533 64.8006 6.27892 64.4461 14.3964C65.9194 13.6403 69.3835 13.2825 70.3024 13.2825C76.214 13.2825 80.8011 17.91 80.8011 24.105C80.8011 30.6525 74.8147 35.49 69.0154 35.6625L69.0273 35.652C60.8985 35.831 55.9646 29.1897 55.9646 18.8026C55.9646 7.67262 61.0456 2.56512 66.3735 2.55762H66.3884L66.3848 2.56536C70.6188 2.96246 74.5461 2.90163 78.1817 0C79.6709 4.2075 78.2266 9.5475 73.43 9.5475C69.5439 9.5475 67.6954 6.17376 66.3787 2.57899ZM72.3752 24.225C72.9225 28.8796 71.1311 33.732 69.0884 35.5972C66.627 34.248 64.368 26.2094 64.368 18.1051C64.368 16.9959 64.3876 15.9544 64.4229 14.978C65.23 14.1952 66.4299 14.8351 67.2478 15.2714C67.3106 15.3049 67.3711 15.3371 67.429 15.3675C70.1977 16.815 71.9412 20.49 72.3752 24.225Z" fill="white"/>
<path fill-rule="evenodd" clip-rule="evenodd" d="M94.8167 15.6748C94.8167 18.0298 92.916 19.9348 90.5664 19.9348C88.2167 19.9348 86.316 18.0298 86.316 15.6748C86.316 13.5399 87.878 11.7749 89.9205 11.4635C92.2134 11.0538 96.9452 11.2264 99.9741 11.7926C104.297 12.4924 106.49 15.3798 106.49 20.3925V27.5178C106.49 29.0928 106.49 34.0803 110.179 33.2478C108.69 34.8078 106.902 35.5428 104.387 35.5428L104.387 35.542C101.329 35.542 99.0377 33.6118 98.3864 30.6737C98.169 33.2736 95.6413 35.6853 92.5274 35.6853C89.422 35.6853 85.1117 33.6753 85.1117 29.5878C85.1117 25.3194 88.6811 20.7456 98.1987 22.8113V19.7529C98.1912 16.9963 98.081 14.3955 96.9645 12.8102C96.2179 11.748 93.8565 11.8105 93.1907 12.3244C94.1811 13.1053 94.8167 14.3173 94.8167 15.6748ZM98.324 30.3613C98.2415 29.8979 98.1987 29.4113 98.1987 28.905V23.0586C97.0542 23.4738 94.1213 24.8339 94.1213 27.8703C94.1213 29.6028 95.5131 30.8853 96.9873 30.8853C97.47 30.8853 97.9461 30.6494 98.324 30.3613Z" fill="white"/>
<path d="M24.7085 11.625C25.7935 12.315 26.2051 15.7725 26.2051 17.8425V27.3525C26.2051 32.13 28.5248 35.5125 33.718 35.565C37.9735 35.7189 40.7898 33.7392 41.5116 30.7845C42.1954 33.6602 44.4671 35.5425 47.4868 35.5425C50.0011 35.5425 51.7896 34.8075 53.2787 33.2475C49.5896 34.08 49.5896 29.0925 49.5896 27.5175L49.5821 15.8925C49.5821 13.5375 47.6739 11.625 45.3243 11.625H40.2591C41.0897 13.1775 41.2917 15.7725 41.2917 17.8425L41.2936 17.8425L41.2984 28.905C41.2984 29.2946 41.3238 29.6724 41.373 30.037C40.6751 31.3944 39.2446 32.3132 37.2575 31.9425C34.7582 31.2675 34.4888 29.4225 34.4963 26.7975V16.5225C34.4963 13.815 32.3037 11.625 29.6099 11.625H24.7085Z" fill="white"/>
<path d="M11.5163 35.6551C6.86191 35.6551 0 32.0776 0 24.1726C0 18.1201 3.81633 13.7626 7.99932 12.1651C9.06939 11.6926 15.0707 9.87005 18.4905 12.4576C17.4728 12.1351 16.6497 11.9401 15.7816 11.7751C14.9735 11.6176 14.1279 11.4751 12.8483 11.8501C9.23401 12.9226 7.55034 16.1626 7.59524 20.5651C7.59524 27.1501 12.4742 31.1626 17.4728 31.1626C19.4782 31.1626 21.0347 30.7576 22.1197 30.0376C20.2116 33.7876 16.3878 35.6551 11.5163 35.6551Z" fill="white"/>
<path d="M20.3749 15.7716C20.3749 18.1791 18.4293 20.1291 16.0273 20.1291C13.6253 20.1291 11.6797 18.1791 11.6797 15.7716C11.6797 13.3641 13.6253 11.4141 16.0273 11.4141C18.4293 11.4141 20.3749 13.3641 20.3749 15.7716Z" fill="#FF671F"/>
</g>
<defs>
<clipPath id="clip0_1115_923">
<rect width="110" height="36" fill="white"/>
</clipPath>
</defs>
</svg>
