<svg width="70" height="16" viewBox="0 0 70 16" fill="none" xmlns="http://www.w3.org/2000/svg">
<path id="Vector" d="M29.3198 11.6607H23.3682L30.9663 1.64539C31.1319 1.42547 31.0859 1.10477 30.8652 0.939829C30.7824 0.875687 30.672 0.839035 30.5616 0.839035H19.5691C18.6032 0.839035 17.8121 1.62706 17.8121 2.58919C17.8121 3.55131 18.6032 4.33934 19.5691 4.33934H24.5088L16.883 14.3638C16.7082 14.5837 16.7542 14.8952 16.975 15.0693C17.067 15.1426 17.1774 15.1793 17.2878 15.1701H29.3106C30.2764 15.1243 31.0215 14.2996 30.9755 13.3283C30.9295 12.4304 30.212 11.7156 29.3106 11.6698V11.6607H29.3198ZM67.7338 0.839035C66.768 0.839035 65.9769 1.62706 65.9769 2.58919V8.46274L56.4837 0.958155C56.2722 0.784056 55.9502 0.811546 55.7754 1.03146C55.7018 1.12309 55.665 1.23305 55.665 1.35217V13.42C55.665 14.3821 56.4561 15.1701 57.422 15.1701C58.3879 15.1701 59.179 14.3913 59.179 13.42V7.54643L68.6721 15.0602C68.8929 15.2343 69.2148 15.1976 69.3896 14.9777C69.4632 14.8861 69.5 14.7761 69.5 14.6662V2.58919C69.4908 1.6179 68.7089 0.839035 67.7338 0.839035ZM42.612 11.9905C38.5921 11.9905 35.5933 9.88302 35.5933 7.99542C35.5933 6.10782 38.6013 4.0003 42.612 4.0003C46.6318 4.0003 49.6306 6.10782 49.6306 7.99542C49.6306 9.88302 46.641 11.9905 42.612 11.9905ZM42.612 0.5C36.7984 0.5 32.0794 3.8537 32.0794 7.99542C32.0794 12.1371 36.7984 15.4908 42.612 15.4908C48.4256 15.4908 53.1446 12.1371 53.1446 7.99542C53.1446 3.8537 48.4256 0.5 42.612 0.5ZM8.03379 11.9997C5.81689 11.9997 4.01393 10.2129 4.01393 8.00458C4.01393 5.79627 5.80769 4.0003 8.0246 4.0003C10.2415 4.0003 12.0445 5.78711 12.0445 7.99542V8.00458C12.0445 10.2037 10.2507 11.9905 8.03379 11.9997ZM8.03379 0.5C3.87595 0.5 0.509199 3.8537 0.5 7.99542C0.5 12.1371 3.86675 15.4908 8.0246 15.5C12.1824 15.5 15.5492 12.1463 15.5584 8.00458V7.99542C15.5492 3.8537 12.1824 0.5 8.03379 0.5Z" fill="#005BFF"/>
</svg>
