<svg width="713" height="480" viewBox="0 0 713 480" fill="none" xmlns="http://www.w3.org/2000/svg">
<g opacity="0.2">
<path d="M346.085 428.674C489.552 428.674 605.856 312.371 605.856 168.903C605.856 25.436 489.552 -90.8672 346.085 -90.8672C202.618 -90.8672 86.3145 25.436 86.3145 168.903C86.3145 312.371 202.618 428.674 346.085 428.674Z" stroke="white" stroke-width="0.4322" stroke-miterlimit="10"/>
<path d="M331.79 461.286C493.268 461.286 624.171 330.382 624.171 168.905C624.171 7.42703 493.268 -123.477 331.79 -123.477C170.313 -123.477 39.4094 7.42703 39.4094 168.905C39.4094 330.382 170.313 461.286 331.79 461.286Z" stroke="white" stroke-width="0.4322" stroke-miterlimit="10"/>
<path d="M356.47 513.865C534.507 513.865 678.834 369.537 678.834 191.501C678.834 13.4639 534.507 -130.863 356.47 -130.863C178.434 -130.863 34.1064 13.4639 34.1064 191.501C34.1064 369.537 178.434 513.865 356.47 513.865Z" stroke="white" stroke-width="0.4322" stroke-miterlimit="10"/>
<path d="M356.5 547C552.837 547 712 387.837 712 191.5C712 -4.83719 552.837 -164 356.5 -164C160.163 -164 1 -4.83719 1 191.5C1 387.837 160.163 547 356.5 547Z" stroke="white" stroke-width="0.4322" stroke-miterlimit="10"/>
<path d="M366.513 400.051C494.172 400.051 597.661 296.563 597.661 168.904C597.661 41.2443 494.172 -62.2441 366.513 -62.2441C238.854 -62.2441 135.365 41.2443 135.365 168.904C135.365 296.563 238.854 400.051 366.513 400.051Z" stroke="white" stroke-width="0.4322" stroke-miterlimit="10"/>
<path d="M339.594 365.557C448.202 365.557 536.246 277.513 536.246 168.906C536.246 60.2979 448.202 -27.7461 339.594 -27.7461C230.986 -27.7461 142.942 60.2979 142.942 168.906C142.942 277.513 230.986 365.557 339.594 365.557Z" stroke="white" stroke-width="0.4322" stroke-miterlimit="10"/>
</g>
</svg>
