<svg width="793" height="892" viewBox="0 0 793 892" fill="none" xmlns="http://www.w3.org/2000/svg">
<g opacity="0.12">
<path d="M432.994 742.887C612.581 742.887 758.164 597.303 758.164 417.717C758.164 238.13 612.581 92.5469 432.994 92.5469C253.408 92.5469 107.824 238.13 107.824 417.717C107.824 597.303 253.408 742.887 432.994 742.887Z" stroke="white" stroke-width="0.4" stroke-miterlimit="10"/>
<path d="M415.115 783.707C617.246 783.707 781.106 619.848 781.106 417.717C781.106 215.586 617.246 51.7266 415.115 51.7266C212.984 51.7266 49.125 215.586 49.125 417.717C49.125 619.848 212.984 783.707 415.115 783.707Z" stroke="white" stroke-width="0.4" stroke-miterlimit="10"/>
<path d="M445.993 849.522C668.852 849.522 849.514 668.859 849.514 446C849.514 223.141 668.852 42.4785 445.993 42.4785C223.134 42.4785 42.4707 223.141 42.4707 446C42.4707 668.859 223.134 849.522 445.993 849.522Z" stroke="white" stroke-width="0.4" stroke-miterlimit="10"/>
<path d="M446 891C691.767 891 891 691.767 891 446C891 200.233 691.767 1 446 1C200.233 1 1 200.233 1 446C1 691.767 200.233 891 446 891Z" stroke="white" stroke-width="0.4" stroke-miterlimit="10"/>
<path d="M458.501 707.059C618.3 707.059 747.842 577.517 747.842 417.718C747.842 257.919 618.3 128.377 458.501 128.377C298.702 128.377 169.16 257.919 169.16 417.718C169.16 577.517 298.702 707.059 458.501 707.059Z" stroke="white" stroke-width="0.4" stroke-miterlimit="10"/>
<path d="M424.845 663.877C560.796 663.877 671.005 553.668 671.005 417.717C671.005 281.766 560.796 171.557 424.845 171.557C288.894 171.557 178.685 281.766 178.685 417.717C178.685 553.668 288.894 663.877 424.845 663.877Z" stroke="white" stroke-width="0.4" stroke-miterlimit="10"/>
</g>
</svg>
