<svg width="120" height="14" viewBox="0 0 120 14" fill="none" xmlns="http://www.w3.org/2000/svg">
<g id="Vector">
<path d="M4.40081 13.7449L0.786133 0.242503H3.1574L5.93475 10.613L8.91114 0.242503H11.1223L14.109 10.6679L16.8989 0.245938L19.2702 0.242503L15.6543 13.7426L12.9056 13.7392L10.0173 3.657L7.12783 13.7426L4.40081 13.7449Z" fill="white"/>
<path d="M4.40081 13.7449L0.786133 0.242503H3.1574L5.93475 10.613L8.91114 0.242503H11.1223L14.109 10.6679L16.8989 0.245938L19.2702 0.242503L15.6543 13.7426L12.9056 13.7392L10.0173 3.657L7.12783 13.7426L4.40081 13.7449Z" fill="url(#paint0_linear_101_3791)"/>
<path d="M23.1628 0.249369H20.9059V13.7358H23.1628V0.249369Z" fill="white"/>
<path d="M23.1628 0.249369H20.9059V13.7358H23.1628V0.249369Z" fill="url(#paint1_linear_101_3791)"/>
<path d="M27.9888 11.6207H33.4841V13.7358H25.7789V0.249369H27.9888V11.6207Z" fill="white"/>
<path d="M27.9888 11.6207H33.4841V13.7358H25.7789V0.249369H27.9888V11.6207Z" fill="url(#paint2_linear_101_3791)"/>
<path d="M40.4274 11.6356C41.704 11.6356 42.7472 11.1998 43.5251 10.3293C44.3349 9.45878 44.7399 8.33777 44.7399 7.01658C44.7399 5.66337 44.3349 4.57439 43.5251 3.7039C42.7312 2.8334 41.688 2.39758 40.4274 2.39758H37.3447V11.6367H40.4274V11.6356ZM40.4274 0.249369C42.2805 0.249369 43.8213 0.918539 45.035 2.20884C46.2647 3.50029 46.887 5.10172 46.887 6.99943C46.887 8.88112 46.2647 10.4837 45.035 11.79C43.8202 13.0815 42.2794 13.7346 40.4274 13.7346H35.1187V0.248224H40.4274V0.249369Z" fill="white"/>
<path d="M40.4274 11.6356C41.704 11.6356 42.7472 11.1998 43.5251 10.3293C44.3349 9.45878 44.7399 8.33777 44.7399 7.01658C44.7399 5.66337 44.3349 4.57439 43.5251 3.7039C42.7312 2.8334 41.688 2.39758 40.4274 2.39758H37.3447V11.6367H40.4274V11.6356ZM40.4274 0.249369C42.2805 0.249369 43.8213 0.918539 45.035 2.20884C46.2647 3.50029 46.887 5.10172 46.887 6.99943C46.887 8.88112 46.2647 10.4837 45.035 11.79C43.8202 13.0815 42.2794 13.7346 40.4274 13.7346H35.1187V0.248224H40.4274V0.249369Z" fill="url(#paint3_linear_101_3791)"/>
<path d="M54.7489 11.6733C55.7761 11.6733 56.5859 10.8326 56.5859 9.77449C56.5859 8.7164 55.7761 7.89166 54.7489 7.89166H51.1834V11.6733H54.7489ZM51.1845 2.33581V5.88414H54.3291C55.3094 5.88414 56.0575 5.1063 56.0575 4.10998C56.0575 3.11366 55.3105 2.33581 54.3291 2.33581H51.1845ZM58.7971 9.88316C58.7971 10.9882 58.4081 11.9067 57.6143 12.6376C56.8204 13.3686 55.8859 13.7426 54.734 13.7426H48.9585V0.250511H54.3142C55.4192 0.250511 56.3537 0.623419 57.1167 1.32462C57.8946 2.04069 58.2686 2.9272 58.2686 3.98529C58.2686 5.16807 57.8019 6.07059 56.8982 6.73977C58.081 7.36204 58.7971 8.48305 58.7971 9.88316Z" fill="white"/>
<path d="M54.7489 11.6733C55.7761 11.6733 56.5859 10.8326 56.5859 9.77449C56.5859 8.7164 55.7761 7.89166 54.7489 7.89166H51.1834V11.6733H54.7489ZM51.1845 2.33581V5.88414H54.3291C55.3094 5.88414 56.0575 5.1063 56.0575 4.10998C56.0575 3.11366 55.3105 2.33581 54.3291 2.33581H51.1845ZM58.7971 9.88316C58.7971 10.9882 58.4081 11.9067 57.6143 12.6376C56.8204 13.3686 55.8859 13.7426 54.734 13.7426H48.9585V0.250511H54.3142C55.4192 0.250511 56.3537 0.623419 57.1167 1.32462C57.8946 2.04069 58.2686 2.9272 58.2686 3.98529C58.2686 5.16807 57.8019 6.07059 56.8982 6.73977C58.081 7.36204 58.7971 8.48305 58.7971 9.88316Z" fill="url(#paint4_linear_101_3791)"/>
<path d="M63.1095 11.6264H69.0863V13.7426H60.8984V0.250511H68.9937V2.3667H63.1095V5.86813H68.5109V7.96944H63.1095V11.6264Z" fill="white"/>
<path d="M63.1095 11.6264H69.0863V13.7426H60.8984V0.250511H68.9937V2.3667H63.1095V5.86813H68.5109V7.96944H63.1095V11.6264Z" fill="url(#paint5_linear_101_3791)"/>
<path d="M73.2901 2.33581V6.84958H76.4655C77.6483 6.84958 78.5828 5.85326 78.5828 4.5927C78.5828 3.34815 77.6334 2.33581 76.4655 2.33581H73.2901ZM78.7693 13.7426L75.905 8.82507H73.2901V13.7426H71.079V0.250511H76.4804C77.6952 0.250511 78.7224 0.670317 79.5471 1.52709C80.3879 2.35183 80.8237 3.37904 80.8237 4.5927C80.8237 6.30509 79.7496 7.87679 78.1459 8.49906L81.2126 13.7438H78.7693V13.7426Z" fill="white"/>
<path d="M73.2901 2.33581V6.84958H76.4655C77.6483 6.84958 78.5828 5.85326 78.5828 4.5927C78.5828 3.34815 77.6334 2.33581 76.4655 2.33581H73.2901ZM78.7693 13.7426L75.905 8.82507H73.2901V13.7426H71.079V0.250511H76.4804C77.6952 0.250511 78.7224 0.670317 79.5471 1.52709C80.3879 2.35183 80.8237 3.37904 80.8237 4.5927C80.8237 6.30509 79.7496 7.87679 78.1459 8.49906L81.2126 13.7438H78.7693V13.7426Z" fill="url(#paint6_linear_101_3791)"/>
<path d="M85.1213 2.32895V6.845H88.2967C89.4795 6.845 90.414 5.84868 90.414 4.58698C90.414 3.34129 89.4646 2.32895 88.2967 2.32895H85.1213ZM90.5856 13.7426L87.7373 8.82278H85.1224V13.7426H82.9113V0.242503H88.3127C89.5275 0.242503 90.5547 0.662309 91.3795 1.51908C92.2202 2.34382 92.656 3.37217 92.656 4.58698C92.656 6.29937 91.5819 7.87221 89.9782 8.49563L93.045 13.7426H90.5856Z" fill="white"/>
<path d="M85.1213 2.32895V6.845H88.2967C89.4795 6.845 90.414 5.84868 90.414 4.58698C90.414 3.34129 89.4646 2.32895 88.2967 2.32895H85.1213ZM90.5856 13.7426L87.7373 8.82278H85.1224V13.7426H82.9113V0.242503H88.3127C89.5275 0.242503 90.5547 0.662309 91.3795 1.51908C92.2202 2.34382 92.656 3.37217 92.656 4.58698C92.656 6.29937 91.5819 7.87221 89.9782 8.49563L93.045 13.7426H90.5856Z" fill="url(#paint7_linear_101_3791)"/>
<path d="M96.8747 0.244793H94.6636V13.7438H96.8747V0.244793Z" fill="white"/>
<path d="M96.8747 0.244793H94.6636V13.7438H96.8747V0.244793Z" fill="url(#paint8_linear_101_3791)"/>
<path d="M101.701 11.6264H107.678V13.7426H99.4896V0.250511H107.585V2.3667H101.701V5.86813H107.102V7.96944H101.701V11.6264Z" fill="white"/>
<path d="M101.701 11.6264H107.678V13.7426H99.4896V0.250511H107.585V2.3667H101.701V5.86813H107.102V7.96944H101.701V11.6264Z" fill="url(#paint9_linear_101_3791)"/>
<path d="M109.219 10.6713L111.134 9.55143C111.679 11.0762 112.785 11.822 114.481 11.822C116.163 11.822 116.988 11.106 116.988 10.049C116.988 9.48852 116.754 9.08473 116.318 8.80448C115.883 8.50935 115.073 8.1822 113.921 7.84018C112.628 7.45126 111.99 7.2019 111.087 6.61165C110.216 5.98938 109.78 5.10287 109.78 3.88921C109.78 2.69156 110.2 1.75815 111.057 1.05809C111.897 0.342021 112.925 0 114.123 0C116.288 0 117.953 1.11986 118.825 2.97067L116.957 4.04363C116.396 2.79909 115.447 2.16194 114.123 2.16194C112.831 2.16194 112.006 2.8151 112.006 3.84231C112.006 4.83749 112.66 5.30419 114.731 5.94248C115.244 6.11406 115.618 6.2376 115.852 6.3314C116.101 6.40918 116.428 6.54874 116.848 6.72032C117.284 6.8919 117.626 7.09323 117.828 7.26481C118.544 7.82531 119.214 8.71754 119.214 10.033C119.214 11.2467 118.778 12.2258 117.89 12.9419C117.018 13.658 115.867 14 114.434 14C111.82 13.9851 109.92 12.7406 109.219 10.6713Z" fill="white"/>
<path d="M109.219 10.6713L111.134 9.55143C111.679 11.0762 112.785 11.822 114.481 11.822C116.163 11.822 116.988 11.106 116.988 10.049C116.988 9.48852 116.754 9.08473 116.318 8.80448C115.883 8.50935 115.073 8.1822 113.921 7.84018C112.628 7.45126 111.99 7.2019 111.087 6.61165C110.216 5.98938 109.78 5.10287 109.78 3.88921C109.78 2.69156 110.2 1.75815 111.057 1.05809C111.897 0.342021 112.925 0 114.123 0C116.288 0 117.953 1.11986 118.825 2.97067L116.957 4.04363C116.396 2.79909 115.447 2.16194 114.123 2.16194C112.831 2.16194 112.006 2.8151 112.006 3.84231C112.006 4.83749 112.66 5.30419 114.731 5.94248C115.244 6.11406 115.618 6.2376 115.852 6.3314C116.101 6.40918 116.428 6.54874 116.848 6.72032C117.284 6.8919 117.626 7.09323 117.828 7.26481C118.544 7.82531 119.214 8.71754 119.214 10.033C119.214 11.2467 118.778 12.2258 117.89 12.9419C117.018 13.658 115.867 14 114.434 14C111.82 13.9851 109.92 12.7406 109.219 10.6713Z" fill="url(#paint10_linear_101_3791)"/>
</g>
<defs>
<linearGradient id="paint0_linear_101_3791" x1="0.786133" y1="5.13333" x2="119.032" y2="5.13333" gradientUnits="userSpaceOnUse">
<stop stop-color="#CA11AB"/>
<stop offset="1" stop-color="#481173"/>
</linearGradient>
<linearGradient id="paint1_linear_101_3791" x1="0.786133" y1="5.13333" x2="119.032" y2="5.13333" gradientUnits="userSpaceOnUse">
<stop stop-color="#CA11AB"/>
<stop offset="1" stop-color="#481173"/>
</linearGradient>
<linearGradient id="paint2_linear_101_3791" x1="0.786133" y1="5.13333" x2="119.032" y2="5.13333" gradientUnits="userSpaceOnUse">
<stop stop-color="#CA11AB"/>
<stop offset="1" stop-color="#481173"/>
</linearGradient>
<linearGradient id="paint3_linear_101_3791" x1="0.786133" y1="5.13333" x2="119.032" y2="5.13333" gradientUnits="userSpaceOnUse">
<stop stop-color="#CA11AB"/>
<stop offset="1" stop-color="#481173"/>
</linearGradient>
<linearGradient id="paint4_linear_101_3791" x1="0.786133" y1="5.13333" x2="119.032" y2="5.13333" gradientUnits="userSpaceOnUse">
<stop stop-color="#CA11AB"/>
<stop offset="1" stop-color="#481173"/>
</linearGradient>
<linearGradient id="paint5_linear_101_3791" x1="0.786133" y1="5.13333" x2="119.032" y2="5.13333" gradientUnits="userSpaceOnUse">
<stop stop-color="#CA11AB"/>
<stop offset="1" stop-color="#481173"/>
</linearGradient>
<linearGradient id="paint6_linear_101_3791" x1="0.786133" y1="5.13333" x2="119.032" y2="5.13333" gradientUnits="userSpaceOnUse">
<stop stop-color="#CA11AB"/>
<stop offset="1" stop-color="#481173"/>
</linearGradient>
<linearGradient id="paint7_linear_101_3791" x1="0.786133" y1="5.13333" x2="119.032" y2="5.13333" gradientUnits="userSpaceOnUse">
<stop stop-color="#CA11AB"/>
<stop offset="1" stop-color="#481173"/>
</linearGradient>
<linearGradient id="paint8_linear_101_3791" x1="0.786133" y1="5.13333" x2="119.032" y2="5.13333" gradientUnits="userSpaceOnUse">
<stop stop-color="#CA11AB"/>
<stop offset="1" stop-color="#481173"/>
</linearGradient>
<linearGradient id="paint9_linear_101_3791" x1="0.786133" y1="5.13333" x2="119.032" y2="5.13333" gradientUnits="userSpaceOnUse">
<stop stop-color="#CA11AB"/>
<stop offset="1" stop-color="#481173"/>
</linearGradient>
<linearGradient id="paint10_linear_101_3791" x1="0.786133" y1="5.13333" x2="119.032" y2="5.13333" gradientUnits="userSpaceOnUse">
<stop stop-color="#CA11AB"/>
<stop offset="1" stop-color="#481173"/>
</linearGradient>
</defs>
</svg>
