<svg width="50" height="50" fill="none" xmlns="http://www.w3.org/2000/svg"><g opacity=".8"><path d="M20.377 8.104c1.175-1 1.763-1.5 2.375-1.794a5.209 5.209 0 014.494 0c.614.292 1.202.792 2.375 1.794.469.4.702.598.952.764.572.384 1.215.65 1.892.784.293.058.6.083 1.212.133 1.54.12 2.308.183 2.95.41a5.207 5.207 0 013.177 3.175c.227.644.288 1.413.41 2.95.048.613.073.919.132 1.215.133.675.4 1.319.783 1.89.167.25.367.483.765.951 1 1.175 1.502 1.763 1.796 2.375a5.208 5.208 0 010 4.494c-.292.613-.794 1.2-1.796 2.375-.273.303-.528.621-.765.952a5.202 5.202 0 00-.783 1.89c-.059.296-.084.602-.131 1.214-.123 1.538-.184 2.309-.41 2.95a5.207 5.207 0 01-3.178 3.175c-.642.23-1.41.29-2.95.411-.612.05-.917.075-1.212.133-.677.134-1.32.4-1.892.784-.33.237-.648.492-.95.764-1.175 1-1.763 1.5-2.375 1.794a5.21 5.21 0 01-4.494 0c-.614-.292-1.202-.792-2.375-1.794a10.98 10.98 0 00-.952-.764 5.209 5.209 0 00-1.892-.784 10.965 10.965 0 00-1.212-.133c-1.54-.12-2.309-.183-2.95-.41a5.207 5.207 0 01-3.177-3.175c-.227-.642-.288-1.413-.41-2.95a10.769 10.769 0 00-.132-1.215 5.208 5.208 0 00-.783-1.89c-.167-.25-.367-.483-.765-.952-1-1.175-1.502-1.762-1.796-2.375a5.208 5.208 0 010-4.494c.294-.612.794-1.2 1.796-2.375.398-.468.598-.702.765-.952.383-.571.65-1.214.783-1.89.058-.295.083-.601.131-1.214.123-1.537.184-2.306.41-2.95a5.208 5.208 0 013.18-3.175c.642-.227 1.41-.29 2.95-.41.612-.05.917-.075 1.212-.133.677-.134 1.32-.4 1.892-.784.25-.166.481-.364.948-.764z" stroke="#fff" stroke-width="1.5"/><path d="M18.75 31.25l12.5-12.5" stroke="#fff" stroke-width="1.5" stroke-linecap="round"/><path d="M32.29 30.208a2.083 2.083 0 11-4.166 0 2.083 2.083 0 014.166 0zM21.874 19.791a2.083 2.083 0 11-4.167 0 2.083 2.083 0 014.167 0z" fill="#fff"/></g></svg>