<svg width="50" height="50" fill="none" xmlns="http://www.w3.org/2000/svg"><path d="M29.167 36.458v-25c0-.575-.466-1.041-1.042-1.041H5.21c-.576 0-1.042.466-1.042 1.041v25c0 .576.466 1.042 1.042 1.042h3.125m20.833-1.042c0 .576-.466 1.042-1.042 1.042H16.667m12.5-1.042v-18.75c0-.575.466-1.041 1.042-1.041h6.86c.276 0 .541.11.736.305l7.724 7.723c.195.195.305.46.305.737v11.026c0 .576-.467 1.042-1.042 1.042h-3.125m-12.5-1.042c0 .576.466 1.042 1.042 1.042h3.125m-25 0a4.167 4.167 0 108.333 0m-8.333 0a4.167 4.167 0 118.333 0m16.667 0a4.167 4.167 0 108.333 0m-8.333 0a4.167 4.167 0 118.333 0" stroke="#fff" stroke-width="1.5" opacity=".8"/></svg>