<svg width="50" height="50" fill="none" xmlns="http://www.w3.org/2000/svg"><g opacity=".8" fill="#fff"><path d="M25.188 27.024A15.812 15.812 0 009.406 42.821a.742.742 0 00.743.743h30.099a.742.742 0 00.742-.743 15.812 15.812 0 00-15.802-15.797zM10.891 42.08a14.307 14.307 0 0128.58 0H10.89zM25.004 8a8 8 0 10-.008 16 8 8 0 00.008-16zm0 14.694a6.698 6.698 0 11-.009-13.396 6.698 6.698 0 01.01 13.396z"/><path d="M13.703 21.287a.743.743 0 00.742-.742v-8.169a.627.627 0 00.065-.109 11.194 11.194 0 0120.792-.079v8.366a11.114 11.114 0 01-2.416 3.703.743.743 0 000 1.05.733.733 0 00.495.213.747.747 0 00.53-.218 12.659 12.659 0 002.722-4.015h.357a4.95 4.95 0 000-9.9h-.406a12.668 12.668 0 00-23.267 0h-.495a4.95 4.95 0 000 9.9h.88zm23.089-8.416h.178a3.465 3.465 0 110 6.93h-.178v-6.93zM9.317 16.337a3.465 3.465 0 013.465-3.466h.178v6.93h-.178a3.466 3.466 0 01-3.465-3.464z"/></g></svg>