<svg width="20" height="20" fill="none" xmlns="http://www.w3.org/2000/svg"><path d="M10.317 18.75C6.956 18.75 2 16.167 2 10.457c0-4.37 2.756-7.518 5.777-8.672.773-.34 5.107-1.657 7.577.212a16.15 16.15 0 00-1.956-.493c-.584-.114-1.194-.217-2.119.054-2.61.774-3.826 3.114-3.794 6.294 0 4.756 3.524 7.654 7.134 7.654 1.449 0 2.573-.293 3.356-.813-1.378 2.709-4.14 4.057-7.658 4.057z"/><path d="M16.717 4.39a3.143 3.143 0 01-3.14 3.147 3.143 3.143 0 01-3.14-3.147 3.143 3.143 0 013.14-3.147 3.143 3.143 0 013.14 3.147z" fill="#FF671F"/></svg>