<svg width="24" height="24" fill="none" xmlns="http://www.w3.org/2000/svg"><path d="M12.076 3h.134c1.233.005 7.48.05 9.165.513.51.141.973.416 1.346.798.372.381.64.856.776 1.376.152.582.259 1.352.33 2.147l.015.16.034.398.011.159c.098 1.4.11 2.71.111 2.996v.115a50.147 50.147 0 01-.123 3.155l-.012.16-.013.16c-.075.876-.186 1.745-.353 2.385-.136.52-.403.996-.776 1.378a2.998 2.998 0 01-1.346.797c-1.74.477-8.354.511-9.27.513h-.213c-.463 0-2.38-.01-4.39-.08l-.255-.01-.131-.005-.256-.01-.257-.012c-1.665-.075-3.25-.196-3.981-.398a2.998 2.998 0 01-1.346-.796A3.09 3.09 0 01.5 17.522c-.167-.638-.278-1.51-.353-2.385l-.012-.161-.012-.16A49.08 49.08 0 010 11.7v-.188c.003-.33.015-1.467.096-2.723l.01-.158.005-.08.012-.158.033-.399.015-.159c.072-.795.178-1.566.33-2.147.136-.52.404-.995.776-1.377a2.997 2.997 0 011.347-.797c.73-.2 2.315-.322 3.98-.398l.255-.01.258-.01.13-.005.256-.01c1.428-.047 2.856-.073 4.284-.078h.29V3zM9.6 7.915v7.378l6.236-3.687L9.6 7.916z" fill="#fff"/></svg>