<svg width="21" height="21" fill="none" xmlns="http://www.w3.org/2000/svg"><g fill="#4E88C4"><circle opacity=".3" cx="6.615" cy="15.492" r="1.5" transform="rotate(-33.678 6.615 15.492)"/><circle opacity=".3" cx="9.943" cy="13.274" r="1.5" transform="rotate(-33.678 9.943 13.274)"/><circle opacity=".3" cx="13.271" cy="11.056" r="1.5" transform="rotate(-33.678 13.271 11.056)"/><circle opacity=".3" cx="16.6" cy="8.837" r="1.5" transform="rotate(-33.678 16.6 8.837)"/><circle opacity=".3" cx="2.178" cy="8.834" r="1.5" transform="rotate(-33.678 2.178 8.834)"/><circle opacity=".3" cx="5.506" cy="6.617" r="1.5" transform="rotate(-33.678 5.506 6.617)"/><circle opacity=".3" cx="8.834" cy="4.398" r="1.5" transform="rotate(-33.678 8.834 4.398)"/><circle opacity=".3" cx="12.166" cy="2.18" r="1.5" transform="rotate(-33.678 12.166 2.18)"/><circle opacity=".3" cx="8.834" cy="18.821" r="1.5" transform="rotate(-33.678 8.834 18.82)"/><circle opacity=".3" cx="12.162" cy="16.602" r="1.5" transform="rotate(-33.678 12.162 16.602)"/><circle opacity=".3" cx="15.49" cy="14.384" r="1.5" transform="rotate(-33.678 15.49 14.384)"/><circle opacity=".3" cx="18.818" cy="12.166" r="1.5" transform="rotate(-33.678 18.818 12.166)"/><circle opacity=".3" cx="4.396" cy="12.164" r="1.5" transform="rotate(-33.678 4.396 12.164)"/><circle opacity=".3" cx="7.725" cy="9.945" r="1.5" transform="rotate(-33.678 7.725 9.945)"/><circle opacity=".3" cx="11.053" cy="7.727" r="1.5" transform="rotate(-33.678 11.053 7.727)"/><circle opacity=".3" cx="14.381" cy="5.509" r="1.5" transform="rotate(-33.678 14.38 5.51)"/></g></svg>