<svg width="76" height="45" fill="none" xmlns="http://www.w3.org/2000/svg"><path d="M26.003 37.205c-.12-2.617-.093-5.854 1.83-7.895 1.595-1.695 4.112-2.098 6.323-2.322 1.558-.158 3.095-.068 4.656-.065 1.492 0 3.218-.075 4.426-1.065.758-.621 1.22-1.728.922-2.689-.24-.776-.853-1.346-1.357-1.954-.48-.576-.797-1.212-.473-1.949.248-.567.704-1.035 1.15-1.447.666-.618 1.379-1.134 2.248-1.432 1.63-.558 3.382-.493 5.081-.558.672-.024 1.36-.06 2.014-.227.26-.069.452-.117.722-.123.332-.005.662-.017.995-.032a22.451 22.451 0 002.277-.215c.63-.096 1.3-.212 1.864-.516.86-.463.803-1.48.53-2.286-.602-1.775-2.52-4.166-.572-5.768a5.37 5.37 0 012.202-1.047c.74-.155 1.537-.11 2.29-.114.862-.006 1.734-.003 2.59-.12.684-.092 1.358-.193 2.044-.259 1.418-.134 2.853-.256 4.237-.608 1.043-.266 2.31-.714 2.805-1.758.23-.486.233-1.017.117-1.537-.087-.385-.68-.22-.594.165.264 1.175-.575 1.876-1.59 2.261-1.304.493-2.73.639-4.106.78-.695.07-1.387.127-2.082.208-.785.09-1.543.224-2.34.245-.863.02-1.726-.003-2.586.041a5.707 5.707 0 00-2.052.499c-1.172.507-2.28 1.357-2.404 2.71-.096 1.061.393 2.1.83 3.037.22.471.453.937.62 1.429.123.361.246.785.123 1.164-.14.432-.602.555-1.003.665-.72.197-1.468.284-2.209.346-.68.057-1.366.09-2.049.099-.596.009-1.166.239-1.765.295-1.615.146-3.245.039-4.85.31-1.733.293-3.174 1.134-4.342 2.438-.627.699-1.17 1.612-.86 2.575.446 1.388 2.474 2.295 1.848 3.951-.53 1.4-2.14 1.746-3.478 1.838-1.636.117-3.278-.101-4.914.018-2.338.17-4.983.448-6.925 1.886-2.031 1.507-2.658 4.022-2.801 6.424a25.15 25.15 0 00-.003 2.605c.015.388.629.391.61-.003zM2.492 43.406c-.24-2.608-.361-5.844 1.467-7.97 1.514-1.767 4.01-2.285 6.209-2.61 1.549-.23 3.088-.21 4.648-.28 1.49-.068 3.211-.222 4.372-1.267.729-.655 1.139-1.782.798-2.728-.275-.764-.914-1.305-1.445-1.89-.506-.553-.852-1.174-.563-1.925.223-.577.656-1.066 1.083-1.498.637-.648 1.325-1.196 2.18-1.534 1.602-.632 3.356-.647 5.05-.79.67-.055 1.356-.123 2.001-.32.257-.08.447-.137.716-.155.332-.021.66-.048.992-.078a22.48 22.48 0 002.265-.32c.624-.124 1.29-.27 1.838-.6.838-.502.734-1.516.425-2.308-.683-1.746-2.708-4.046-.836-5.736a5.37 5.37 0 012.151-1.147c.733-.19 1.53-.181 2.282-.219.862-.045 1.733-.082 2.584-.238.678-.124 1.347-.256 2.029-.353 1.41-.2 2.838-.387 4.204-.802 1.03-.314 2.275-.819 2.721-1.885.208-.496.187-1.027.047-1.54-.105-.38-.69-.19-.586.19.318 1.163-.488 1.902-1.485 2.333-1.28.552-2.698.763-4.065.967-.691.103-1.38.192-2.07.304-.78.125-1.532.294-2.327.352-.861.06-1.724.076-2.581.16a5.707 5.707 0 00-2.028.592c-1.147.56-2.215 1.461-2.276 2.817-.047 1.066.489 2.08.969 2.996.24.461.495.916.685 1.4.14.355.281.772.176 1.156-.12.44-.576.583-.972.711-.71.23-1.454.35-2.19.447a29.32 29.32 0 01-2.043.193c-.595.036-1.15.292-1.75.376-1.606.22-3.24.188-4.831.533-1.717.371-3.118 1.278-4.225 2.634-.594.726-1.094 1.664-.741 2.612.51 1.366 2.578 2.179 2.028 3.862-.465 1.422-2.057 1.842-3.39 1.996-1.63.19-3.28.049-4.908.243-2.327.277-4.958.676-6.831 2.202-1.96 1.598-2.47 4.14-2.504 6.546-.01.87.038 1.737.117 2.602.033.387.646.362.61-.03z" fill="#0057B8" stroke="#0057B8"/></svg>