<svg width="55" height="55" fill="none" xmlns="http://www.w3.org/2000/svg"><path d="M19.961 7.558a3 3 0 103-5.195 3 3 0 00-3 5.195zm9.528 5.5a3 3 0 103-5.196 3 3 0 00-3 5.196zm9.523 5.5a3 3 0 103-5.195 3 3 0 00-3 5.195zm9.528 5.5a3 3 0 103-5.196 3 3 0 00-3 5.197zm-34.079-6.973a3 3 0 103-5.196 3 3 0 00-3 5.196zm9.528 5.5a3 3 0 103-5.196 3 3 0 00-3 5.196zm9.523 5.5a3 3 0 103-5.196 3 3 0 00-3 5.196zm9.528 5.5a3 3 0 103-5.197 3 3 0 00-3 5.197zM8.961 26.611a3 3 0 103-5.196 3 3 0 00-3 5.196zm9.528 5.5a3 3 0 103-5.196 3 3 0 00-3 5.196zm9.523 5.5a3 3 0 103-5.196 3 3 0 00-3 5.196zm9.528 5.5a3 3 0 103-5.196 3 3 0 00-3 5.196zM3.461 36.138a3 3 0 103-5.197 3 3 0 00-3 5.197zm9.528 5.5a3 3 0 103-5.197 3 3 0 00-3 5.197zm9.523 5.5a3 3 0 103-5.197 3 3 0 00-3 5.197zm9.528 5.5a3 3 0 103-5.197 3 3 0 00-3 5.197z" fill="#FF671F"/></svg>