<svg width="110" height="36" fill="none" xmlns="http://www.w3.org/2000/svg"><g clip-path="url(#clip0_1115_923)"><path fill-rule="evenodd" clip-rule="evenodd" d="M66.379 2.579c-.133.296-1.578 3.7-1.933 11.817 1.473-.756 4.938-1.114 5.856-1.114 5.912 0 10.5 4.628 10.5 10.823 0 6.547-5.987 11.385-11.787 11.558l.012-.011c-8.129.179-13.062-6.462-13.062-16.85 0-11.13 5.08-16.237 10.409-16.244h.014l-.003.007c4.234.397 8.161.337 11.797-2.565 1.489 4.207.045 9.547-4.752 9.547-3.886 0-5.735-3.373-7.051-6.968zm5.996 21.646c.547 4.655-1.244 9.507-3.287 11.372-2.461-1.349-4.72-9.388-4.72-17.492 0-1.11.02-2.15.055-3.127.807-.783 2.007-.143 2.825.293l.181.096c2.769 1.448 4.512 5.123 4.946 8.858zm22.442-8.55a4.252 4.252 0 01-4.25 4.26 4.252 4.252 0 01-4.251-4.26c0-2.135 1.562-3.9 3.605-4.212 2.292-.41 7.024-.237 10.053.33 4.323.7 6.516 3.587 6.516 8.6v7.125c0 1.575 0 6.562 3.689 5.73-1.489 1.56-3.277 2.295-5.792 2.295v-.001c-3.058 0-5.35-1.93-6-4.868-.218 2.6-2.746 5.011-5.86 5.011-3.105 0-7.415-2.01-7.415-6.097 0-4.269 3.57-8.842 13.087-6.777v-3.058c-.008-2.757-.118-5.357-1.234-6.943-.747-1.062-3.109-1-3.774-.486a4.259 4.259 0 011.626 3.35zm3.507 14.686a8.307 8.307 0 01-.125-1.456v-5.846c-1.145.415-4.078 1.775-4.078 4.811 0 1.733 1.392 3.015 2.866 3.015.483 0 .96-.236 1.337-.524z" fill="#fff"/><path d="M24.709 11.625c1.085.69 1.496 4.148 1.496 6.218v9.51c0 4.777 2.32 8.16 7.513 8.212 4.255.154 7.072-1.826 7.794-4.78.683 2.875 2.955 4.757 5.975 4.757 2.514 0 4.303-.735 5.792-2.294-3.69.832-3.69-4.155-3.69-5.73l-.007-11.626a4.265 4.265 0 00-4.258-4.267H40.26c.83 1.553 1.033 4.148 1.033 6.218h.002l.004 11.062c0 .39.026.767.075 1.132-.698 1.357-2.128 2.276-4.115 1.905-2.5-.675-2.77-2.52-2.762-5.145V16.523a4.893 4.893 0 00-4.886-4.898H24.71zm-13.193 24.03C6.862 35.655 0 32.078 0 24.173c0-6.053 3.816-10.41 8-12.008 1.07-.472 7.07-2.295 10.49.293a22.358 22.358 0 00-2.708-.683c-.809-.157-1.654-.3-2.934.075-3.614 1.073-5.298 4.313-5.253 8.715 0 6.585 4.88 10.598 9.878 10.598 2.005 0 3.562-.405 4.647-1.125-1.908 3.75-5.732 5.617-10.604 5.617z" fill="#fff"/><path d="M20.375 15.772a4.351 4.351 0 01-4.348 4.357 4.351 4.351 0 01-4.347-4.357 4.351 4.351 0 014.347-4.358 4.351 4.351 0 014.348 4.358z" fill="#FF671F"/></g><defs><clipPath id="clip0_1115_923"><path fill="#fff" d="M0 0h110v36H0z"/></clipPath></defs></svg>