<svg width="70" height="16" fill="none" xmlns="http://www.w3.org/2000/svg"><path d="M29.32 11.66h-5.952l7.598-10.015a.507.507 0 00-.404-.806H19.569a1.76 1.76 0 00-1.757 1.75c0 .962.791 1.75 1.757 1.75h4.94l-7.626 10.025a.498.498 0 00.092.705.44.44 0 00.313.101H29.31a1.751 1.751 0 000-3.5v-.01h.009zM67.734.84a1.76 1.76 0 00-1.757 1.75v5.874L56.484.958a.501.501 0 00-.819.394V13.42c0 .962.791 1.75 1.757 1.75.966 0 1.757-.779 1.757-1.75V7.546l9.493 7.514a.513.513 0 00.828-.394V2.59A1.761 1.761 0 0067.734.84zM42.612 11.991c-4.02 0-7.019-2.108-7.019-3.996C35.593 6.108 38.601 4 42.612 4c4.02 0 7.019 2.108 7.019 3.995 0 1.888-2.99 3.996-7.019 3.996zm0-11.491c-5.814 0-10.533 3.354-10.533 7.495 0 4.142 4.72 7.496 10.533 7.496 5.814 0 10.533-3.354 10.533-7.496C53.145 3.854 48.425.5 42.612.5zM8.034 12c-2.217 0-4.02-1.787-4.02-3.995A4.008 4.008 0 018.024 4c2.218 0 4.02 1.787 4.02 3.995v.01c0 2.199-1.793 3.986-4.01 3.995zm0-11.5C3.876.5.509 3.854.5 7.995c0 4.142 3.367 7.496 7.525 7.505 4.157 0 7.524-3.354 7.533-7.495v-.01C15.55 3.854 12.182.5 8.034.5z" fill="#005BFF"/></svg>