<svg width="713" height="480" fill="none" xmlns="http://www.w3.org/2000/svg"><g opacity=".2" stroke="#fff" stroke-width=".432" stroke-miterlimit="10"><path d="M346.085 428.674c143.467 0 259.771-116.303 259.771-259.771 0-143.467-116.304-259.77-259.771-259.77S86.315 25.436 86.315 168.903c0 143.468 116.303 259.771 259.77 259.771z"/><path d="M331.79 461.286c161.478 0 292.381-130.904 292.381-292.381 0-161.478-130.903-292.382-292.381-292.382-161.477 0-292.38 130.904-292.38 292.382 0 161.477 130.903 292.381 292.38 292.381z"/><path d="M356.47 513.865c178.037 0 322.364-144.328 322.364-322.364 0-178.037-144.327-322.364-322.364-322.364-178.036 0-322.364 144.327-322.364 322.364 0 178.036 144.328 322.364 322.364 322.364z"/><path d="M356.5 547C552.837 547 712 387.837 712 191.5S552.837-164 356.5-164 1-4.837 1 191.5 160.163 547 356.5 547z"/><path d="M366.513 400.051c127.659 0 231.148-103.488 231.148-231.147 0-127.66-103.489-231.148-231.148-231.148-127.659 0-231.148 103.488-231.148 231.148 0 127.659 103.489 231.147 231.148 231.147z"/><path d="M339.594 365.557c108.608 0 196.652-88.044 196.652-196.651 0-108.608-88.044-196.652-196.652-196.652-108.608 0-196.652 88.044-196.652 196.652 0 108.607 88.044 196.651 196.652 196.651z"/></g></svg>