<svg width="793" height="892" fill="none" xmlns="http://www.w3.org/2000/svg"><g opacity=".12" stroke="#fff" stroke-width=".4" stroke-miterlimit="10"><path d="M432.994 742.887c179.587 0 325.17-145.584 325.17-325.17 0-179.587-145.583-325.17-325.17-325.17-179.586 0-325.17 145.583-325.17 325.17 0 179.586 145.584 325.17 325.17 325.17z"/><path d="M415.115 783.707c202.131 0 365.991-163.859 365.991-365.99s-163.86-365.99-365.991-365.99c-202.131 0-365.99 163.859-365.99 365.99s163.859 365.99 365.99 365.99z"/><path d="M445.993 849.522c222.859 0 403.521-180.663 403.521-403.522 0-222.859-180.662-403.522-403.521-403.522S42.471 223.142 42.471 446c0 222.859 180.663 403.522 403.522 403.522z"/><path d="M446 891c245.767 0 445-199.233 445-445S691.767 1 446 1 1 200.233 1 446s199.233 445 445 445z"/><path d="M458.501 707.059c159.799 0 289.341-129.542 289.341-289.341S618.3 128.377 458.501 128.377 169.16 257.919 169.16 417.718s129.542 289.341 289.341 289.341z"/><path d="M424.845 663.877c135.951 0 246.16-110.209 246.16-246.16s-110.209-246.16-246.16-246.16-246.16 110.209-246.16 246.16 110.209 246.16 246.16 246.16z"/></g></svg>