<?xml version="1.0" encoding="UTF-8"?><!DOCTYPE svg PUBLIC "-//W3C//DTD SVG 1.1//EN" "http://www.w3.org/Graphics/SVG/1.1/DTD/svg11.dtd"><svg xmlns="http://www.w3.org/2000/svg"><defs><clipPath id="phone-a"><path fill="#fff" d="M0 0h20v20H0z"/></clipPath><clipPath id="place-a"><path fill="#fff" d="M0 0h20v20H0z"/></clipPath><filter id="play-hov-a" width="80" height="80" x="0" y="0" color-interpolation-filters="sRGB" filterUnits="userSpaceOnUse"><feFlood flood-opacity="0" result="BackgroundImageFix"/><feColorMatrix in="SourceAlpha" result="hardAlpha" values="0 0 0 0 0 0 0 0 0 0 0 0 0 0 0 0 0 0 127 0"/><feOffset dy="2"/><feGaussianBlur stdDeviation="5"/><feComposite in2="hardAlpha" operator="out"/><feColorMatrix values="0 0 0 0 0 0 0 0 0 0 0 0 0 0 0 0 0 0 0.3 0"/><feBlend in2="BackgroundImageFix" result="effect1_dropShadow_1111_10729"/><feBlend in="SourceGraphic" in2="effect1_dropShadow_1111_10729" result="shape"/></filter><filter id="play-a" width="80" height="80" x="0" y="0" color-interpolation-filters="sRGB" filterUnits="userSpaceOnUse"><feFlood flood-opacity="0" result="BackgroundImageFix"/><feColorMatrix in="SourceAlpha" result="hardAlpha" values="0 0 0 0 0 0 0 0 0 0 0 0 0 0 0 0 0 0 127 0"/><feOffset dy="2"/><feGaussianBlur stdDeviation="5"/><feComposite in2="hardAlpha" operator="out"/><feColorMatrix values="0 0 0 0 0 0 0 0 0 0 0 0 0 0 0 0 0 0 0.3 0"/><feBlend in2="BackgroundImageFix" result="effect1_dropShadow_1111_10729"/><feBlend in="SourceGraphic" in2="effect1_dropShadow_1111_10729" result="shape"/></filter></defs><symbol id="alert" viewBox="0 0 24 24"><path stroke="currentColor" stroke-linecap="round" stroke-linejoin="round" stroke-width="2" d="M10.29 3.86L1.82 18a2 2 0 0 0 1.71 3h16.94a2 2 0 0 0 1.71-3L13.71 3.86a2 2 0 0 0-3.42 0zM12 9v4M12 16v.5"/></symbol><symbol id="arrow-bottom" viewBox="0 0 12 8"><path stroke="#fff" stroke-width="1.5" d="M1 1l5 5 5-5"/></symbol><symbol id="arrow-next" viewBox="0 0 8 12"><path d="M1 11l5-5-5-5"/></symbol><symbol id="arrow-prev" viewBox="0 0 8 12"><path d="M7 1L2 6l5 5"/></symbol><symbol id="arrow" viewBox="0 0 11 6"><path stroke="currentColor" stroke-linecap="round" stroke-linejoin="round" stroke-width="2" d="M1 1l4.5 4L10 1"/></symbol><symbol id="basket" viewBox="0 0 36 36"><rect width="24" height="19.5" x="6" y="10.5" rx="4"/><path d="M24 15V9a6 6 0 0 0-12 0v6"/></symbol><symbol id="basket2" viewBox="0 0 20 20"><rect width="16" height="13" x="2" y="6" rx="4"/><path d="M14 9V5a4 4 0 1 0-8 0v4"/></symbol><symbol id="catalog" viewBox="0 0 36 36"><path fill="#fff" d="M11 21a3 3 0 1 0 0-6 3 3 0 0 0 0 6zM22 21a3 3 0 1 0 0-6 3 3 0 0 0 0 6zM33 21a3 3 0 1 0 0-6 3 3 0 0 0 0 6z"/></symbol><symbol id="catalog2" viewBox="0 0 20 20"><path d="M17.5 14.125a3.375 3.375 0 1 1-6.75 0 3.375 3.375 0 0 1 6.75 0zM19 19l-2-2M5 7H4M16 4H2M5 10H4M9 10H8M14 7H8"/><path d="M17 8V4.2c0-1.12 0-1.68-.218-2.108a2 2 0 0 0-.874-.874C15.48 1 14.92 1 13.8 1H4.2c-1.12 0-1.68 0-2.108.218a2 2 0 0 0-.874.874C1 2.52 1 3.08 1 4.2v9.6c0 1.12 0 1.68.218 2.108a2 2 0 0 0 .874.874C2.52 17 3.08 17 4.2 17H8"/></symbol><symbol id="close" viewBox="0 0 20 20"><path d="M18 2L2 18M2 2l16 16"/></symbol><symbol id="delete" viewBox="0 0 22 23"><path fill="#fff" d="M.417 8.174c-.55-.183-.555-.479.011-.667L20.518.81c.557-.186.876.126.72.671l-5.74 20.09c-.159.557-.48.576-.715.048L11 13.105l6.316-8.42L8.893 11 .417 8.174z"/></symbol><symbol id="facebook" viewBox="0 0 24 24"><path fill="#fff" d="M22 12c0-5.52-4.48-10-10-10S2 6.48 2 12c0 4.84 3.44 8.87 8 9.8V15H8v-3h2V9.5C10 7.57 11.57 6 13.5 6H16v3h-2c-.55 0-1 .45-1 1v2h3v3h-3v6.95c5.05-.5 9-4.76 9-9.95z"/></symbol><symbol id="footer-delivery" viewBox="0 0 50 50"><path stroke="#fff" stroke-width="1.5" d="M29.167 36.458v-25c0-.575-.466-1.041-1.042-1.041H5.21c-.576 0-1.042.466-1.042 1.041v25c0 .576.466 1.042 1.042 1.042h3.125m20.833-1.042c0 .576-.466 1.042-1.042 1.042H16.667m12.5-1.042v-18.75c0-.575.466-1.041 1.042-1.041h6.86c.276 0 .541.11.736.305l7.724 7.723c.195.195.305.46.305.737v11.026c0 .576-.467 1.042-1.042 1.042h-3.125m-12.5-1.042c0 .576.466 1.042 1.042 1.042h3.125m-25 0a4.167 4.167 0 1 0 8.333 0m-8.333 0a4.167 4.167 0 1 1 8.333 0m16.667 0a4.167 4.167 0 1 0 8.333 0m-8.333 0a4.167 4.167 0 1 1 8.333 0" opacity=".8"/></symbol><symbol id="footer-learn" viewBox="0 0 50 50"><path stroke="#fff" stroke-linecap="round" stroke-width="1.5" d="M10.417 22.916v11.836c0 1.667.993 3.173 2.525 3.83l10.417 4.464c1.048.45 2.234.45 3.282 0l10.417-4.464a4.167 4.167 0 0 0 2.526-3.83V22.916m6.25-4.167v10.417M3.947 16.776l19.19-9.595a4.167 4.167 0 0 1 3.727 0l19.19 9.595c.767.384.767 1.48 0 1.863l-19.19 9.595a4.167 4.167 0 0 1-3.727 0L3.947 18.64a1.042 1.042 0 0 1 0-1.863z" opacity=".8"/></symbol><symbol id="footer-sale" viewBox="0 0 50 50"><g opacity=".8"><path stroke="#fff" stroke-width="1.5" d="M20.377 8.104c1.175-1 1.763-1.5 2.375-1.794a5.209 5.209 0 0 1 4.494 0c.614.292 1.202.792 2.375 1.794.469.4.702.598.952.764.572.384 1.215.65 1.892.784.293.058.6.083 1.212.133 1.54.12 2.308.183 2.95.41a5.207 5.207 0 0 1 3.177 3.175c.227.644.288 1.413.41 2.95.048.613.073.919.132 1.215.133.675.4 1.319.783 1.89.167.25.367.483.765.951 1 1.175 1.502 1.763 1.796 2.375a5.208 5.208 0 0 1 0 4.494c-.292.613-.794 1.2-1.796 2.375-.273.303-.528.621-.765.952a5.202 5.202 0 0 0-.783 1.89c-.059.296-.084.602-.131 1.214-.123 1.538-.184 2.309-.41 2.95a5.207 5.207 0 0 1-3.178 3.175c-.642.23-1.41.29-2.95.411-.612.05-.917.075-1.212.133-.677.134-1.32.4-1.892.784-.33.237-.648.492-.95.764-1.175 1-1.763 1.5-2.375 1.794a5.21 5.21 0 0 1-4.494 0c-.614-.292-1.202-.792-2.375-1.794a10.98 10.98 0 0 0-.952-.764 5.209 5.209 0 0 0-1.892-.784 10.965 10.965 0 0 0-1.212-.133c-1.54-.12-2.309-.183-2.95-.41a5.207 5.207 0 0 1-3.177-3.175c-.227-.642-.288-1.413-.41-2.95-.021-.407-.065-.813-.132-1.215a5.208 5.208 0 0 0-.783-1.89c-.167-.25-.367-.483-.765-.952-1-1.175-1.502-1.762-1.796-2.375a5.208 5.208 0 0 1 0-4.494c.294-.612.794-1.2 1.796-2.375.398-.468.598-.702.765-.952.383-.571.65-1.214.783-1.89.058-.295.083-.601.131-1.214.123-1.537.184-2.306.41-2.95a5.208 5.208 0 0 1 3.18-3.175c.642-.227 1.41-.29 2.95-.41.612-.05.917-.075 1.212-.133.677-.134 1.32-.4 1.892-.784.25-.166.481-.364.948-.764z"/><path stroke="#fff" stroke-linecap="round" stroke-width="1.5" d="M18.75 31.25l12.5-12.5"/><path fill="#fff" d="M32.29 30.208a2.083 2.083 0 1 1-4.166 0 2.083 2.083 0 0 1 4.166 0zM21.874 19.791a2.083 2.083 0 1 1-4.167 0 2.083 2.083 0 0 1 4.167 0z"/></g></symbol><symbol id="footer-support" viewBox="0 0 50 50"><g fill="#fff" opacity=".8"><path d="M25.188 27.024A15.812 15.812 0 0 0 9.406 42.821a.742.742 0 0 0 .743.743h30.099a.742.742 0 0 0 .742-.743 15.812 15.812 0 0 0-15.802-15.797zM10.891 42.08a14.307 14.307 0 0 1 28.58 0H10.89zM25.004 8a8 8 0 1 0-.008 16 8 8 0 0 0 .008-16zm0 14.694a6.698 6.698 0 1 1-.009-13.396 6.698 6.698 0 0 1 .01 13.396z"/><path d="M13.703 21.287a.743.743 0 0 0 .742-.742v-8.169a.627.627 0 0 0 .065-.109 11.194 11.194 0 0 1 20.792-.079v8.366a11.114 11.114 0 0 1-2.416 3.703.743.743 0 0 0 0 1.05.733.733 0 0 0 .495.213.747.747 0 0 0 .53-.218 12.659 12.659 0 0 0 2.722-4.015h.357a4.95 4.95 0 0 0 0-9.9h-.406a12.668 12.668 0 0 0-23.267 0h-.495a4.95 4.95 0 0 0 0 9.9h.88zm23.089-8.416h.178a3.465 3.465 0 1 1 0 6.93h-.178v-6.93zM9.317 16.337a3.465 3.465 0 0 1 3.465-3.466h.178v6.93h-.178a3.466 3.466 0 0 1-3.465-3.464z"/></g></symbol><symbol id="instagram" viewBox="0 0 24 24"><path fill="#fff" d="M13.029 2.001c.73-.003 1.459.005 2.189.022l.194.007c.224.008.445.018.712.03 1.064.05 1.79.218 2.427.465.66.254 1.216.598 1.772 1.154.508.5.901 1.104 1.153 1.771.247.637.415 1.364.465 2.428.012.266.022.488.03.712l.006.194c.017.73.025 1.459.023 2.188v2.056c.003.73-.005 1.46-.022 2.19l-.006.193c-.008.224-.018.445-.03.712-.05 1.064-.22 1.79-.466 2.427a4.884 4.884 0 0 1-1.153 1.772c-.5.509-1.105.902-1.772 1.153-.637.247-1.363.415-2.427.465-.267.012-.488.022-.712.03l-.194.006c-.73.018-1.46.026-2.19.023l-.745.001h-1.31c-.73.003-1.459-.005-2.188-.023l-.194-.006a60.403 60.403 0 0 1-.712-.03c-1.064-.05-1.79-.22-2.428-.466a4.888 4.888 0 0 1-1.771-1.153 4.903 4.903 0 0 1-1.154-1.772c-.247-.637-.415-1.363-.465-2.427a74.175 74.175 0 0 1-.03-.712l-.005-.194c-.019-.73-.027-1.459-.025-2.189v-2.056a78.81 78.81 0 0 1 .022-2.188l.007-.194c.008-.224.018-.446.03-.712.05-1.065.218-1.79.465-2.428A4.88 4.88 0 0 1 3.68 3.68a4.897 4.897 0 0 1 1.77-1.155c.638-.247 1.363-.415 2.428-.465l.712-.03.194-.005A79.05 79.05 0 0 1 10.973 2l2.056.001zm-1.028 5a5 5 0 1 0 0 10 5 5 0 0 0 0-10zm0 2a3 3 0 1 1 0 6 3 3 0 1 1 0-6zm5.25-3.5a1.25 1.25 0 0 0 0 2.498 1.25 1.25 0 0 0 0-2.5v.002z"/></symbol><symbol id="lk" viewBox="0 0 24 24"><circle cx="4" cy="4" r="4" transform="matrix(-1 0 0 1 16 3)"/><path d="M5 16.435c0-.86.54-1.628 1.351-1.917a16.794 16.794 0 0 1 11.298 0A2.036 2.036 0 0 1 19 16.434v2.193a2 2 0 0 1-2.338 1.971l-.1-.017a27 27 0 0 0-9.124 0l-.1.017A2 2 0 0 1 5 18.628v-2.193z"/></symbol><symbol id="lk2" viewBox="0 0 20 20"><circle cx="4" cy="4" r="4" transform="matrix(-1 0 0 1 14 1)"/><path d="M3 14.935c0-.86.54-1.628 1.351-1.918a16.794 16.794 0 0 1 11.298 0A2.036 2.036 0 0 1 17 14.935v1.315c0 1.188-1.052 2.1-2.227 1.932l-.955-.136a27.002 27.002 0 0 0-7.636 0l-.955.136A1.951 1.951 0 0 1 3 16.25v-1.315z"/></symbol><symbol id="main" viewBox="0 0 20 20"><path d="M10.317 18.75C6.956 18.75 2 16.167 2 10.457c0-4.37 2.756-7.518 5.777-8.672.773-.34 5.107-1.657 7.577.212a16.15 16.15 0 0 0-1.956-.493c-.584-.114-1.194-.217-2.119.054-2.61.774-3.826 3.114-3.794 6.294 0 4.756 3.524 7.654 7.134 7.654 1.449 0 2.573-.293 3.356-.813-1.378 2.709-4.14 4.057-7.658 4.057z"/><path fill="#FF671F" d="M16.717 4.39a3.143 3.143 0 0 1-3.14 3.147 3.143 3.143 0 0 1-3.14-3.147 3.143 3.143 0 0 1 3.14-3.147 3.143 3.143 0 0 1 3.14 3.147z"/></symbol><symbol id="menu" viewBox="0 0 20 20"><path d="M19 4H6M19 10H6M19 16H6M3 4H1M3 10H1M3 16H1"/></symbol><symbol id="next" viewBox="0 0 8 14"><path d="M1 13l5-6-5-6"/></symbol><symbol id="phone" viewBox="0 0 20 20"><g clip-path="url(#phone-a)"><path fill="#fff" d="M17.5 13.683v2.947a.833.833 0 0 1-.775.832c-.364.025-.662.038-.892.038C8.47 17.5 2.5 11.53 2.5 4.167c0-.23.013-.528.038-.892A.833.833 0 0 1 3.37 2.5h2.947a.417.417 0 0 1 .415.375c.019.192.036.344.053.46.166 1.156.505 2.28 1.007 3.334a.38.38 0 0 1-.123.473L5.871 8.427a10.872 10.872 0 0 0 5.703 5.703l1.284-1.795a.385.385 0 0 1 .477-.124c1.054.5 2.178.84 3.333 1.004.116.017.269.035.459.053a.417.417 0 0 1 .374.415H17.5z"/></g></symbol><symbol id="place" viewBox="0 0 20 20"><g clip-path="url(#place-a)"><path fill="#fff" d="M10 19.774L4.697 14.47a7.5 7.5 0 1 1 10.606 0L10 19.774zm4.125-6.482a5.833 5.833 0 1 0-8.25 0L10 17.417l4.125-4.125zM10 10.834A1.667 1.667 0 1 1 10 7.5a1.667 1.667 0 0 1 0 3.334z"/></g></symbol><symbol id="play-hov" viewBox="0 0 80 80"><g filter="url(#play-hov-a)"><rect width="60" height="60" x="10" y="8" fill="#FF671F" rx="7"/><path fill="#fff" d="M52 38L34 48.392V27.608L52 38z"/></g></symbol><symbol id="play" viewBox="0 0 80 80"><g filter="url(#play-a)"><rect width="60" height="60" x="10" y="8" fill="#fff" rx="7"/><path fill="#FF671F" d="M52 38L34 48.392V27.608L52 38z"/></g></symbol><symbol id="prev" viewBox="0 0 8 14"><path d="M7 13L2 7l5-6"/></symbol><symbol id="question" viewBox="0 0 24 24"><path stroke="currentColor" stroke-linecap="round" stroke-linejoin="round" stroke-width="2" d="M12 22c5.523 0 10-4.477 10-10S17.523 2 12 2 2 6.477 2 12s4.477 10 10 10z"/><path stroke="currentColor" stroke-linecap="round" stroke-linejoin="round" stroke-width="2" d="M9.09 9a3 3 0 0 1 5.83 1c0 2-3 3-3 3M12 16v.5"/></symbol><symbol id="search" viewBox="0 0 50 50"><path d="M21 3C11.602 3 4 10.602 4 20s7.602 17 17 17c3.355 0 6.46-.984 9.094-2.656l12.281 12.281 4.25-4.25L34.5 30.281C36.68 27.421 38 23.88 38 20c0-9.398-7.602-17-17-17zm0 4c7.2 0 13 5.8 13 13s-5.8 13-13 13S8 27.2 8 20 13.8 7 21 7z"/></symbol><symbol id="send" viewBox="0 0 22 23"><path fill="#fff" d="M.417 8.174c-.55-.183-.555-.479.011-.667L20.518.81c.557-.186.876.126.72.671l-5.74 20.09c-.159.557-.48.576-.715.048L11 13.105l6.316-8.42L8.893 11 .417 8.174z"/></symbol><symbol id="share" viewBox="0 0 20 20"><path stroke="currentColor" stroke-linecap="round" stroke-linejoin="round" stroke-width="2" d="M15 6.667a2.5 2.5 0 1 0 0-5 2.5 2.5 0 0 0 0 5zM5 12.5a2.5 2.5 0 1 0 0-5 2.5 2.5 0 0 0 0 5zM15 18.333a2.5 2.5 0 1 0 0-5 2.5 2.5 0 0 0 0 5zM7.158 11.258l5.692 3.317M12.841 5.425L7.159 8.742"/></symbol><symbol id="youtube" viewBox="0 0 24 24"><path fill="#fff" d="M12.076 3h.134c1.233.005 7.48.05 9.165.513.51.141.973.416 1.346.798.372.381.64.856.776 1.376.152.582.259 1.352.33 2.147l.015.16.034.398.011.159c.098 1.4.11 2.71.111 2.996v.115a50.147 50.147 0 0 1-.123 3.155l-.012.16-.013.16c-.075.876-.186 1.745-.353 2.385-.136.52-.403.996-.776 1.378a2.998 2.998 0 0 1-1.346.797c-1.74.477-8.354.511-9.27.513h-.213c-.463 0-2.38-.01-4.39-.08l-.255-.01-.131-.005-.256-.01-.257-.012c-1.665-.075-3.25-.196-3.981-.398a2.998 2.998 0 0 1-1.346-.796A3.09 3.09 0 0 1 .5 17.522c-.167-.638-.278-1.51-.353-2.385l-.012-.161-.012-.16A49.08 49.08 0 0 1 0 11.7v-.188c.003-.33.015-1.467.096-2.723l.01-.158.005-.08.012-.158.033-.399.015-.159c.072-.795.178-1.566.33-2.147.136-.52.404-.995.776-1.377a2.997 2.997 0 0 1 1.347-.797c.73-.2 2.315-.322 3.98-.398l.255-.01.258-.01.13-.005.256-.01c1.428-.047 2.856-.073 4.284-.078h.29V3zM9.6 7.915v7.378l6.236-3.687L9.6 7.916z"/></symbol></svg>