<svg width="120" height="14" fill="none" xmlns="http://www.w3.org/2000/svg"><path d="M4.4 13.745L.787.243h2.371l2.778 10.37L8.91.243h2.211l2.987 10.425L16.899.246 19.27.243l-3.616 13.5-2.748-.004-2.889-10.082-2.89 10.086-2.726.002z" fill="#fff"/><path d="M4.4 13.745L.787.243h2.371l2.778 10.37L8.91.243h2.211l2.987 10.425L16.899.246 19.27.243l-3.616 13.5-2.748-.004-2.889-10.082-2.89 10.086-2.726.002z" fill="url(#paint0_linear_101_3791)"/><path d="M23.163.25h-2.257v13.486h2.257V.249z" fill="#fff"/><path d="M23.163.25h-2.257v13.486h2.257V.249z" fill="url(#paint1_linear_101_3791)"/><path d="M27.989 11.62h5.495v2.116H25.78V.249h2.21v11.372z" fill="#fff"/><path d="M27.989 11.62h5.495v2.116H25.78V.249h2.21v11.372z" fill="url(#paint2_linear_101_3791)"/><path d="M40.427 11.636c1.277 0 2.32-.436 3.098-1.307.81-.87 1.215-1.991 1.215-3.312 0-1.354-.405-2.443-1.215-3.313-.794-.87-1.837-1.306-3.098-1.306h-3.082v9.239h3.082v-.001zm0-11.387c1.854 0 3.394.67 4.608 1.96 1.23 1.291 1.852 2.893 1.852 4.79 0 1.882-.622 3.485-1.852 4.791-1.215 1.292-2.756 1.945-4.608 1.945H35.12V.248h5.308V.25z" fill="#fff"/><path d="M40.427 11.636c1.277 0 2.32-.436 3.098-1.307.81-.87 1.215-1.991 1.215-3.312 0-1.354-.405-2.443-1.215-3.313-.794-.87-1.837-1.306-3.098-1.306h-3.082v9.239h3.082v-.001zm0-11.387c1.854 0 3.394.67 4.608 1.96 1.23 1.291 1.852 2.893 1.852 4.79 0 1.882-.622 3.485-1.852 4.791-1.215 1.292-2.756 1.945-4.608 1.945H35.12V.248h5.308V.25z" fill="url(#paint3_linear_101_3791)"/><path d="M54.749 11.673c1.027 0 1.837-.84 1.837-1.899 0-1.058-.81-1.882-1.837-1.882h-3.566v3.781h3.566zm-3.565-9.337v3.548h3.145c.98 0 1.728-.778 1.728-1.774s-.747-1.774-1.728-1.774h-3.145zm7.613 7.547c0 1.105-.389 2.024-1.183 2.755-.794.73-1.728 1.105-2.88 1.105h-5.776V.25h5.356c1.105 0 2.04.372 2.803 1.074.778.716 1.152 1.602 1.152 2.66 0 1.183-.467 2.086-1.37 2.755 1.182.622 1.898 1.743 1.898 3.143z" fill="#fff"/><path d="M54.749 11.673c1.027 0 1.837-.84 1.837-1.899 0-1.058-.81-1.882-1.837-1.882h-3.566v3.781h3.566zm-3.565-9.337v3.548h3.145c.98 0 1.728-.778 1.728-1.774s-.747-1.774-1.728-1.774h-3.145zm7.613 7.547c0 1.105-.389 2.024-1.183 2.755-.794.73-1.728 1.105-2.88 1.105h-5.776V.25h5.356c1.105 0 2.04.372 2.803 1.074.778.716 1.152 1.602 1.152 2.66 0 1.183-.467 2.086-1.37 2.755 1.182.622 1.898 1.743 1.898 3.143z" fill="url(#paint4_linear_101_3791)"/><path d="M63.11 11.626h5.976v2.117h-8.188V.25h8.096v2.116h-5.885v3.501h5.402V7.97H63.11v3.657z" fill="#fff"/><path d="M63.11 11.626h5.976v2.117h-8.188V.25h8.096v2.116h-5.885v3.501h5.402V7.97H63.11v3.657z" fill="url(#paint5_linear_101_3791)"/><path d="M73.29 2.336V6.85h3.175c1.183 0 2.118-.997 2.118-2.257 0-1.245-.95-2.257-2.117-2.257H73.29zm5.48 11.407l-2.865-4.918H73.29v4.918h-2.21V.25h5.401c1.215 0 2.242.42 3.067 1.276.84.825 1.277 1.852 1.277 3.066a4.22 4.22 0 01-2.678 3.906l3.067 5.245H78.77v-.001z" fill="#fff"/><path d="M73.29 2.336V6.85h3.175c1.183 0 2.118-.997 2.118-2.257 0-1.245-.95-2.257-2.117-2.257H73.29zm5.48 11.407l-2.865-4.918H73.29v4.918h-2.21V.25h5.401c1.215 0 2.242.42 3.067 1.276.84.825 1.277 1.852 1.277 3.066a4.22 4.22 0 01-2.678 3.906l3.067 5.245H78.77v-.001z" fill="url(#paint6_linear_101_3791)"/><path d="M85.121 2.329v4.516h3.176c1.183 0 2.117-.996 2.117-2.258 0-1.246-.95-2.258-2.117-2.258H85.12zm5.465 11.414l-2.849-4.92h-2.615v4.92h-2.21V.243h5.4c1.216 0 2.243.42 3.067 1.276.841.825 1.277 1.853 1.277 3.068a4.224 4.224 0 01-2.678 3.909l3.067 5.247h-2.46z" fill="#fff"/><path d="M85.121 2.329v4.516h3.176c1.183 0 2.117-.996 2.117-2.258 0-1.246-.95-2.258-2.117-2.258H85.12zm5.465 11.414l-2.849-4.92h-2.615v4.92h-2.21V.243h5.4c1.216 0 2.243.42 3.067 1.276.841.825 1.277 1.853 1.277 3.068a4.224 4.224 0 01-2.678 3.909l3.067 5.247h-2.46z" fill="url(#paint7_linear_101_3791)"/><path d="M96.875.245h-2.211v13.499h2.21V.244z" fill="#fff"/><path d="M96.875.245h-2.211v13.499h2.21V.244z" fill="url(#paint8_linear_101_3791)"/><path d="M101.701 11.626h5.977v2.117H99.49V.25h8.095v2.116h-5.884v3.501h5.401V7.97h-5.401v3.657z" fill="#fff"/><path d="M101.701 11.626h5.977v2.117H99.49V.25h8.095v2.116h-5.884v3.501h5.401V7.97h-5.401v3.657z" fill="url(#paint9_linear_101_3791)"/><path d="M109.219 10.671l1.915-1.12c.545 1.525 1.651 2.271 3.347 2.271 1.682 0 2.507-.716 2.507-1.773 0-.56-.234-.964-.67-1.245-.435-.295-1.245-.622-2.397-.964-1.293-.389-1.931-.638-2.834-1.228-.871-.623-1.307-1.51-1.307-2.723 0-1.197.42-2.13 1.277-2.83.84-.717 1.868-1.059 3.066-1.059 2.165 0 3.83 1.12 4.702 2.97l-1.868 1.074c-.561-1.245-1.51-1.882-2.834-1.882-1.292 0-2.117.653-2.117 1.68 0 .995.654 1.462 2.725 2.1.513.172.887.296 1.121.39.249.077.576.217.996.388.436.172.778.373.98.545.716.56 1.386 1.453 1.386 2.768 0 1.214-.436 2.193-1.324 2.909-.872.716-2.023 1.058-3.456 1.058-2.614-.015-4.514-1.26-5.215-3.329z" fill="#fff"/><path d="M109.219 10.671l1.915-1.12c.545 1.525 1.651 2.271 3.347 2.271 1.682 0 2.507-.716 2.507-1.773 0-.56-.234-.964-.67-1.245-.435-.295-1.245-.622-2.397-.964-1.293-.389-1.931-.638-2.834-1.228-.871-.623-1.307-1.51-1.307-2.723 0-1.197.42-2.13 1.277-2.83.84-.717 1.868-1.059 3.066-1.059 2.165 0 3.83 1.12 4.702 2.97l-1.868 1.074c-.561-1.245-1.51-1.882-2.834-1.882-1.292 0-2.117.653-2.117 1.68 0 .995.654 1.462 2.725 2.1.513.172.887.296 1.121.39.249.077.576.217.996.388.436.172.778.373.98.545.716.56 1.386 1.453 1.386 2.768 0 1.214-.436 2.193-1.324 2.909-.872.716-2.023 1.058-3.456 1.058-2.614-.015-4.514-1.26-5.215-3.329z" fill="url(#paint10_linear_101_3791)"/><defs><linearGradient id="paint0_linear_101_3791" x1=".786" y1="5.133" x2="119.032" y2="5.133" gradientUnits="userSpaceOnUse"><stop stop-color="#CA11AB"/><stop offset="1" stop-color="#481173"/></linearGradient><linearGradient id="paint1_linear_101_3791" x1=".786" y1="5.133" x2="119.032" y2="5.133" gradientUnits="userSpaceOnUse"><stop stop-color="#CA11AB"/><stop offset="1" stop-color="#481173"/></linearGradient><linearGradient id="paint2_linear_101_3791" x1=".786" y1="5.133" x2="119.032" y2="5.133" gradientUnits="userSpaceOnUse"><stop stop-color="#CA11AB"/><stop offset="1" stop-color="#481173"/></linearGradient><linearGradient id="paint3_linear_101_3791" x1=".786" y1="5.133" x2="119.032" y2="5.133" gradientUnits="userSpaceOnUse"><stop stop-color="#CA11AB"/><stop offset="1" stop-color="#481173"/></linearGradient><linearGradient id="paint4_linear_101_3791" x1=".786" y1="5.133" x2="119.032" y2="5.133" gradientUnits="userSpaceOnUse"><stop stop-color="#CA11AB"/><stop offset="1" stop-color="#481173"/></linearGradient><linearGradient id="paint5_linear_101_3791" x1=".786" y1="5.133" x2="119.032" y2="5.133" gradientUnits="userSpaceOnUse"><stop stop-color="#CA11AB"/><stop offset="1" stop-color="#481173"/></linearGradient><linearGradient id="paint6_linear_101_3791" x1=".786" y1="5.133" x2="119.032" y2="5.133" gradientUnits="userSpaceOnUse"><stop stop-color="#CA11AB"/><stop offset="1" stop-color="#481173"/></linearGradient><linearGradient id="paint7_linear_101_3791" x1=".786" y1="5.133" x2="119.032" y2="5.133" gradientUnits="userSpaceOnUse"><stop stop-color="#CA11AB"/><stop offset="1" stop-color="#481173"/></linearGradient><linearGradient id="paint8_linear_101_3791" x1=".786" y1="5.133" x2="119.032" y2="5.133" gradientUnits="userSpaceOnUse"><stop stop-color="#CA11AB"/><stop offset="1" stop-color="#481173"/></linearGradient><linearGradient id="paint9_linear_101_3791" x1=".786" y1="5.133" x2="119.032" y2="5.133" gradientUnits="userSpaceOnUse"><stop stop-color="#CA11AB"/><stop offset="1" stop-color="#481173"/></linearGradient><linearGradient id="paint10_linear_101_3791" x1=".786" y1="5.133" x2="119.032" y2="5.133" gradientUnits="userSpaceOnUse"><stop stop-color="#CA11AB"/><stop offset="1" stop-color="#481173"/></linearGradient></defs></svg>